<?xml version="1.0" encoding="UTF-8"?>
<svg version="1.1" xmlns="http://www.w3.org/2000/svg" viewBox="350 410 420 260" width="420" height="260">
<path d="M0 0 C-2.13478166 3.20217249 -3.62795029 4.27285259 -7 6 C-7.99 6 -8.98 6 -10 6 C-10.11601563 6.87978516 -10.11601563 6.87978516 -10.234375 7.77734375 C-11.2556593 10.74219461 -12.74709817 11.71018689 -15.25 13.5625 C-16.0646875 14.16835938 -16.879375 14.77421875 -17.71875 15.3984375 C-20.08239071 17.0578428 -22.50609589 18.5452226 -25 20 C-28.00223862 22.23422409 -29.91178461 23.86767691 -32 27 C-33.6635479 27.67441131 -35.33066942 28.3400321 -37 29 C-37.825 29.66 -38.65 30.32 -39.5 31 C-42 33 -42 33 -44.3125 33.875 C-47.51623654 35.21609902 -49.86121717 37.09181305 -52.546875 39.26953125 C-60.51824075 44.89264435 -66.77184044 46.82218668 -76.546875 47.328125 C-77.75273254 47.40746277 -78.95859009 47.48680054 -80.20098877 47.56854248 C-84.04969312 47.81620039 -87.89945233 48.03312228 -91.75 48.25 C-94.25793509 48.40954281 -96.76575002 48.57098645 -99.2734375 48.734375 C-113.32156957 49.62421318 -127.3657943 50.25998609 -141.43621826 50.64581299 C-146.94862844 50.80659697 -152.35676633 51.10159371 -157.82873535 51.77767944 C-161.94077939 52.19872066 -166.06504467 52.197696 -170.1953125 52.24609375 C-172.14844171 52.2790484 -174.1015666 52.31225975 -176.0546875 52.34570312 C-179.08199991 52.39283698 -182.10929692 52.43729506 -185.13671875 52.47680664 C-195.61136093 52.61972047 -205.79162398 52.92485889 -216.15625 54.50317383 C-223.46853996 55.44832818 -230.83506742 55.68542925 -238.19702148 56.00537109 C-240.93059459 56.12469856 -243.66348652 56.25493128 -246.39648438 56.38671875 C-256.93997174 56.87824166 -267.44482427 57.11766364 -278 57 C-278.33 57.99 -278.66 58.98 -279 60 C-279.99 60 -280.98 60 -282 60 C-282.33 60.99 -282.66 61.98 -283 63 C-284.68167249 64.02219308 -286.37069118 65.03562481 -288.10546875 65.96484375 C-290.22795779 67.08854589 -290.22795779 67.08854589 -293 69 C-295.21145948 70.47430632 -297.36899784 71.78416443 -299.6875 73.0625 C-302.37995571 74.63733258 -303.91483733 75.82005721 -306 78 C-307.66666667 79 -309.33333333 80 -311 81 C-313.71579189 82.93524363 -316.3544558 84.97019241 -319 87 C-320.01964844 87.78117187 -321.03929687 88.56234375 -322.08984375 89.3671875 C-327.77706447 93.73088257 -333.44857838 98.1143405 -339.09765625 102.52734375 C-340.03931641 103.25630859 -340.03931641 103.25630859 -341 104 C-342.01900391 104.83724609 -342.01900391 104.83724609 -343.05859375 105.69140625 C-345 107 -345 107 -348 107 C-348.20625 107.639375 -348.4125 108.27875 -348.625 108.9375 C-350 111 -350 111 -353.125 111.75 C-354.07375 111.8325 -355.0225 111.915 -356 112 C-356.37249622 104.92257188 -355.55531979 96.69414974 -351 91 C-350.34 91 -349.68 91 -349 91 C-348.87882812 90.32195312 -348.75765625 89.64390625 -348.6328125 88.9453125 C-347.49299238 82.61492691 -346.28510307 76.30247356 -345 70 C-344.34 70 -343.68 70 -343 70 C-343.061875 68.824375 -343.12375 67.64875 -343.1875 66.4375 C-343.1875 62.83172442 -342.46764007 60.33985892 -340.86328125 57.0703125 C-339.31144465 53.3487134 -338.55298341 49.39626144 -337.6484375 45.4765625 C-337 43 -337 43 -336 42 C-335.979375 41.01 -335.95875 40.02 -335.9375 39 C-335.25409683 33.39377735 -330.80968721 29.8245109 -327 26 C-326.45859375 25.44957031 -325.9171875 24.89914062 -325.359375 24.33203125 C-323.00621981 22.02620964 -320.78540273 20.29717941 -317.6875 19.125 C-315.25223354 18.10558613 -313.64670878 17.07004274 -311.5625 15.5 C-306.68689363 11.92455533 -301.52273332 10.8704248 -295.7109375 9.640625 C-291.10101496 8.55124849 -286.57697255 7.15913995 -282.0390625 5.8046875 C-279 5 -279 5 -276 5 C-276 4.34 -276 3.68 -276 3 C-274.99208908 2.99191315 -273.98417816 2.98382629 -272.94572449 2.97549438 C-259.69289544 2.86813086 -246.44018043 2.74929986 -233.1875 2.625 C-231.55120951 2.60975218 -231.55120951 2.60975218 -229.88186264 2.59419632 C-203.99408804 2.35121423 -178.10961126 2.04929398 -152.2265625 1.48828125 C-151.18765743 1.4657642 -150.14875237 1.44324715 -149.07836533 1.42004776 C-141.82301625 1.26190764 -134.56775721 1.09978929 -127.3125 0.9375 C-84.86974924 -0.01188105 -42.45190623 -0.24489402 0 0 Z " fill="#FAFAFA" transform="translate(749,415)"/>
<path d="M0 0 C0 0.99 0 1.98 0 3 C-8.22852392 7.72067246 -8.22852392 7.72067246 -12.625 9.3125 C-16.61424327 11.30712164 -18.47847897 13.69223874 -21.265625 17.08984375 C-23.23468183 19.25846715 -25.36370281 20.55080847 -27.96875 21.87109375 C-33.06851909 24.70538849 -38.52090676 28.34839254 -42.515625 32.62109375 C-44.46091442 34.42816523 -46.5404909 35.02582697 -49 36 C-50.53864753 37.09338823 -52.03944241 38.24179704 -53.5 39.4375 C-56.56726393 41.89537375 -59.60204382 44.0178589 -63 46 C-63.845625 46.70125 -64.69125 47.4025 -65.5625 48.125 C-67.92861288 49.94508683 -69.20414357 50.3251381 -72 51 C-72.66 51.99 -73.32 52.98 -74 54 C-77.58638095 55.06715378 -81.13483915 55.15748536 -84.859375 55.24609375 C-85.97570312 55.27896484 -87.09203125 55.31183594 -88.2421875 55.34570312 C-90.56501534 55.40648982 -92.88793616 55.46382922 -95.2109375 55.51757812 C-101.01153407 55.69426296 -106.32907879 56.14374095 -111.95361328 57.56567383 C-115.35690862 58.28799098 -118.58473486 58.18766243 -122.0625 58.125 C-123.37347656 58.10695313 -124.68445313 58.08890625 -126.03515625 58.0703125 C-127.50275391 58.03550781 -127.50275391 58.03550781 -129 58 C-129.33 58.99 -129.66 59.98 -130 61 C-131.17916992 61.03327393 -132.35833984 61.06654785 -133.57324219 61.10083008 C-138.00453946 61.23996786 -142.43040476 61.44884503 -146.85791016 61.67749023 C-148.76370629 61.76645742 -150.67045256 61.837216 -152.57763672 61.88842773 C-166.68964412 62.22334222 -166.68964412 62.22334222 -178.203125 69.63671875 C-179.12316124 70.63698207 -180.03222303 71.6475214 -180.92675781 72.6706543 C-181.61092773 73.43933838 -182.29509766 74.20802246 -183 75 C-183.66 75 -184.32 75 -185 75 C-185.226875 75.515625 -185.45375 76.03125 -185.6875 76.5625 C-186.82827144 78.68107554 -188.02571494 80.6363614 -189.375 82.625 C-189.77460938 83.21539063 -190.17421875 83.80578125 -190.5859375 84.4140625 C-192.22553323 86.25294611 -193.8066415 86.91388606 -196 88 C-197.58836002 89.56318257 -197.58836002 89.56318257 -199.0625 91.4375 C-202.97794492 96.09347472 -207.27264384 100.26324233 -211.64453125 104.484375 C-213.72757996 106.70905721 -214.70209233 108.32686249 -216 111 C-217.8046875 112.78125 -217.8046875 112.78125 -219.875 114.5 C-220.58527344 115.10328125 -221.29554688 115.7065625 -222.02734375 116.328125 C-222.67832031 116.87984375 -223.32929688 117.4315625 -224 118 C-227.27451962 120.99544233 -227.27451962 120.99544233 -229 125 C-230.66666667 126.33333333 -232.33333333 127.66666667 -234 129 C-234.95861345 130.08588698 -235.89485907 131.19177461 -236.8125 132.3125 C-238.90377403 134.83153462 -241.0293724 136.92986001 -243.5625 139 C-248.49176339 143.14440981 -252.50266475 148.08414595 -256.60766602 153.02148438 C-257.14705811 153.66279297 -257.6864502 154.30410156 -258.2421875 154.96484375 C-258.7254248 155.5487085 -259.20866211 156.13257324 -259.70654297 156.73413086 C-261 158 -261 158 -263 158 C-263.33 158.99 -263.66 159.98 -264 161 C-264.99 161.33 -265.98 161.66 -267 162 C-268.35278115 163.98689731 -269.68568305 165.98745218 -271 168 C-274 170 -274 170 -277 170 C-276.88597936 167.72858891 -276.75841495 165.45785448 -276.625 163.1875 C-276.55539062 161.92292969 -276.48578125 160.65835938 -276.4140625 159.35546875 C-276 156 -276 156 -274 153 C-273.29835358 151.01200182 -272.62627128 149.01301483 -272 147 C-271.34 147 -270.68 147 -270 147 C-270.020625 145.906875 -270.04125 144.81375 -270.0625 143.6875 C-270 140 -270 140 -269 137 C-268.34 136.67 -267.68 136.34 -267 136 C-266.41890393 133.9167706 -265.93366541 131.80633262 -265.5 129.6875 C-264.69544674 125.78279316 -263.86858676 122.51204258 -262 119 C-260.39519182 113.89188509 -259.89303981 108.82962869 -259.625 103.5 C-259.29610929 98.36332516 -258.31029854 94.63336598 -255.984375 90.07421875 C-254.44785902 86.83656007 -253.80828782 83.48185521 -253 80 C-252.67 79.67 -252.34 79.34 -252 79 C-251.70265494 77.46322652 -251.4372563 75.92022121 -251.1875 74.375 C-250.27105883 69.50596904 -248.69449221 66.13155473 -246 62 C-245.34 62 -244.68 62 -244 62 C-243.7834375 61.46890625 -243.566875 60.9378125 -243.34375 60.390625 C-241.50159748 57.11330715 -239.03862231 54.49197449 -236.5 51.75 C-236.00113281 51.19570313 -235.50226563 50.64140625 -234.98828125 50.0703125 C-233.7031646 48.6714992 -232.35566232 47.33055746 -231 46 C-230.34 46 -229.68 46 -229 46 C-228.67 45.01 -228.34 44.02 -228 43 C-226.109375 41.3515625 -226.109375 41.3515625 -223.75 39.625 C-221.16022567 37.72177658 -218.8553534 35.85441718 -216.5859375 33.5703125 C-213.84261041 30.8435614 -210.97271061 28.56357835 -207.875 26.25 C-206.32425781 25.08210937 -206.32425781 25.08210937 -204.7421875 23.890625 C-202 22 -202 22 -199 21 C-198.13375 20.1028125 -198.13375 20.1028125 -197.25 19.1875 C-183.51973813 5.8386343 -160.16621164 5.39874694 -142.25341797 5.28051758 C-122.97052471 5.13353489 -103.75760688 3.88407303 -84.51483154 2.72647095 C-68.73052787 1.77793333 -52.95410534 0.88408524 -37.1484375 0.37890625 C-35.91766983 0.33938843 -34.68690216 0.29987061 -33.4188385 0.25915527 C-22.27871262 -0.06839291 -11.14376037 -0.09939925 0 0 Z " fill="#FCFCFC" transform="translate(631,503)"/>
<path d="M0 0 C0.85658203 0.00451172 1.71316406 0.00902344 2.59570312 0.01367188 C4.66800033 0.02524895 6.74026058 0.04317341 8.8125 0.0625 C8.8125 2.0425 8.8125 4.0225 8.8125 6.0625 C7.35744642 6.59242692 5.89831873 7.1111789 4.4375 7.625 C3.21933594 8.06005859 3.21933594 8.06005859 1.9765625 8.50390625 C-0.1875 9.0625 -0.1875 9.0625 -2.1875 8.0625 C2.5625 5.0625 2.5625 5.0625 4.8125 5.0625 C4.8125 4.0725 4.8125 3.0825 4.8125 2.0625 C-6.27117929 2.49141182 -17.35446051 2.92988587 -28.4375 3.375 C-29.67968481 3.42481647 -29.67968481 3.42481647 -30.94696426 3.47563934 C-53.82012691 4.39478197 -76.67016625 5.46891839 -99.51895142 6.88192749 C-115.30651018 7.85394965 -131.07391559 8.49943799 -146.8894043 8.77197266 C-147.62419006 8.78574951 -148.35897583 8.79952637 -149.11602783 8.8137207 C-151.06286779 8.84882236 -153.00982766 8.87709303 -154.95678711 8.90478516 C-157.81745008 9.04443514 -160.40588909 9.40649383 -163.1875 10.0625 C-162.1875 8.0625 -162.1875 8.0625 -159.1875 7.0625 C-157.38925005 6.93664551 -155.5872502 6.8611236 -153.78515625 6.81640625 C-152.73005859 6.78353516 -151.67496094 6.75066406 -150.58789062 6.71679688 C-148.36663761 6.65570917 -146.14527729 6.59840362 -143.92382812 6.54492188 C-142.33924805 6.49368164 -142.33924805 6.49368164 -140.72265625 6.44140625 C-139.757229 6.4163501 -138.79180176 6.39129395 -137.79711914 6.36547852 C-135.21895022 6.22461255 -135.21895022 6.22461255 -133.28205872 5.0625 C-131.01336332 3.97936236 -129.56033042 3.79619362 -127.06494141 3.75952148 C-126.26375885 3.74287949 -125.46257629 3.72623749 -124.63711548 3.70909119 C-123.779758 3.70067703 -122.92240051 3.69226288 -122.0390625 3.68359375 C-121.14891449 3.66659927 -120.25876648 3.6496048 -119.34164429 3.63209534 C-116.49866823 3.57903255 -113.65570459 3.53872724 -110.8125 3.5 C-107.97651341 3.45592854 -105.14063401 3.40906063 -102.30477905 3.35719299 C-100.54186062 3.32549871 -98.778849 3.29852963 -97.01577759 3.27696228 C-96.20829071 3.26347244 -95.40080383 3.2499826 -94.56884766 3.23608398 C-93.86587555 3.22657211 -93.16290344 3.21706024 -92.43862915 3.20726013 C-90.07168029 3.09540033 -90.07168029 3.09540033 -87.30677795 2.56349182 C-84.1232531 2.05218121 -81.12026045 1.91068362 -77.89770508 1.87304688 C-76.6723555 1.85632935 -75.44700592 1.83961182 -74.18452454 1.8223877 C-72.87195175 1.80881226 -71.55937897 1.79523682 -70.20703125 1.78125 C-68.8294761 1.76317527 -67.45192782 1.7445707 -66.0743866 1.72546387 C-61.71631516 1.66604837 -57.35817297 1.61384194 -53 1.5625 C-47.96159609 1.50288135 -42.92326208 1.44018655 -37.88498497 1.37062073 C-35.88510218 1.34444464 -33.88515359 1.32345771 -31.88520813 1.3026123 C-25.41249952 1.21542611 -19.02758243 0.97390267 -12.58969116 0.28089905 C-8.39688024 -0.10029706 -4.20631505 -0.0432954 0 0 Z " fill="#2B2E31" transform="translate(626.1875,500.9375)"/>
<path d="M0 0 C1.30831787 -0.00137466 2.61663574 -0.00274933 3.96459961 -0.00416565 C5.41770958 -0.00062648 6.87081932 0.00300833 8.32392883 0.00672913 C9.8514455 0.00701115 11.3789623 0.00685297 12.90647888 0.00628662 C17.05700714 0.00599923 21.20750661 0.01188665 25.35802817 0.01886058 C29.69421986 0.02510371 34.03041218 0.02569868 38.36660767 0.02688599 C46.57947695 0.02999646 54.79233296 0.03820605 63.00519639 0.04823548 C72.35454212 0.05940539 81.70388848 0.06490928 91.05323923 0.06993091 C110.2871127 0.08038889 129.5209738 0.09798287 148.75483704 0.12025452 C148.75483704 0.45025452 148.75483704 0.78025452 148.75483704 1.12025452 C111.87775094 2.01841389 75.01671898 2.2110909 38.12983704 2.18275452 C37.00762001 2.1818985 35.88540298 2.18104248 34.72917938 2.18016052 C20.73771621 2.16870132 6.74627597 2.1485264 -7.24516296 2.12025452 C-7.24516296 2.78025452 -7.24516296 3.44025452 -7.24516296 4.12025452 C-12.85868393 6.06939374 -18.47041389 7.71807902 -24.24516296 9.12025452 C-26.83202439 9.75466451 -29.4143018 10.40001528 -31.99516296 11.05775452 C-33.26875671 11.37615295 -34.54235046 11.69455139 -35.85453796 12.02259827 C-38.95776448 13.02721422 -40.83181668 13.98115213 -43.24516296 16.12025452 C-43.90516296 15.79025452 -44.56516296 15.46025452 -45.24516296 15.12025452 C-38.04037918 8.96534815 -30.04359557 5.92958641 -20.63578796 5.42884827 C-17.14618409 4.97839287 -14.28831747 3.60435257 -11.15531921 2.05775452 C-7.29750727 0.16434988 -4.24608537 -0.00343257 0 0 Z " fill="#66676A" transform="translate(480.2451629638672,415.87974548339844)"/>
<path d="M0 0 C0 1.98 0 3.96 0 6 C-0.99580078 6.16435547 -0.99580078 6.16435547 -2.01171875 6.33203125 C-6.90879478 7.21136023 -10.90161428 7.99451714 -15 11 C-15.495 10.01 -15.495 10.01 -16 9 C-13.03 7.35 -10.06 5.7 -7 4 C-45.61 4 -84.22 4 -124 4 C-124 3.67 -124 3.34 -124 3 C-113.88659712 2.59937779 -103.77288033 2.20786985 -93.65873051 1.82654572 C-88.95713121 1.64902994 -84.25566891 1.46891069 -79.55444336 1.28173828 C-53.02342551 0.22800882 -26.5516591 -0.20624599 0 0 Z " fill="#56575B" transform="translate(755,412)"/>
<path d="M0 0 C0 0.33 0 0.66 0 1 C-26.31365651 4.56924057 -53.01013953 5.08821777 -79.5234375 5.73422241 C-103.3622486 5.6394569 -103.3622486 5.6394569 -126 12 C-127.5803057 12.73570534 -129.16378046 13.46463345 -130.75 14.1875 C-131.85601562 14.70376953 -131.85601562 14.70376953 -132.984375 15.23046875 C-135 16 -135 16 -138 16 C-138 16.66 -138 17.32 -138 18 C-139.98 18 -141.96 18 -144 18 C-135.93156092 8.50771873 -118.68045484 5.01612331 -106.99682617 3.78973389 C-99.50640183 3.22658618 -91.99152401 3.24860346 -84.48434448 3.19476318 C-83.65162018 3.18849915 -82.81889587 3.18223511 -81.9609375 3.17578125 C-80.68272629 3.16662689 -80.68272629 3.16662689 -79.37869263 3.1572876 C-66.39617886 3.01230777 -53.43946954 2.05691357 -40.48666382 1.22351074 C-26.9673811 0.35614753 -13.54856093 -0.20850138 0 0 Z " fill="#D0D1D3" transform="translate(577,505)"/>
<path d="M0 0 C0.99 0.495 0.99 0.495 2 1 C-3.57901447 5.80230543 -9.09762953 5.83286465 -16.25390625 6.23046875 C-18.06905983 6.35159782 -18.06905983 6.35159782 -19.92088318 6.47517395 C-23.80055682 6.72932875 -27.68128373 6.95825532 -31.5625 7.1875 C-34.08408528 7.35197587 -36.6055715 7.51797791 -39.12695312 7.68554688 C-53.22802019 8.59838212 -67.32091211 9.26434197 -81.44569397 9.64897156 C-87.05585505 9.81116003 -92.57355426 10.0966858 -98.14402771 10.78651428 C-100.44829642 11.0515659 -102.71672165 11.11386908 -105.03515625 11.09765625 C-106.27749023 11.09282227 -106.27749023 11.09282227 -107.54492188 11.08789062 C-108.37572266 11.07951172 -109.20652344 11.07113281 -110.0625 11.0625 C-111.3609082 11.05573242 -111.3609082 11.05573242 -112.68554688 11.04882812 C-114.79039539 11.03719913 -116.89520758 11.01927073 -119 11 C-119 10.67 -119 10.34 -119 10 C-116.27273388 9.79640428 -113.5454393 9.59319916 -110.81811523 9.39038086 C-108.41915597 9.21195673 -106.02023067 9.03307551 -103.62133789 8.85375977 C-97.09642318 8.36840751 -90.57096467 7.89866646 -84.04296875 7.45703125 C-82.76969727 7.3698584 -81.49642578 7.28268555 -80.18457031 7.19287109 C-77.71149948 7.02432587 -75.23819189 6.85921493 -72.76464844 6.69775391 C-71.64477539 6.62089355 -70.52490234 6.5440332 -69.37109375 6.46484375 C-68.38036865 6.399021 -67.38964355 6.33319824 -66.36889648 6.26538086 C-63.98498205 6.1361811 -63.98498205 6.1361811 -62 5 C-59.56027925 4.86693453 -57.14463868 4.78963809 -54.703125 4.75390625 C-53.18098313 4.72239675 -51.65884792 4.69056423 -50.13671875 4.65844727 C-49.3379834 4.64306915 -48.53924805 4.62769104 -47.71630859 4.61184692 C-36.12600248 4.37994328 -24.55104246 4.10096571 -13 3.0625 C-12.12504883 2.98781494 -11.25009766 2.91312988 -10.34863281 2.83618164 C-5.96261961 2.42929349 -5.96261961 2.42929349 -1.87890625 0.90014648 C-1.25886719 0.60309814 -0.63882813 0.3060498 0 0 Z " fill="#999A9D" transform="translate(689,456)"/>
<path d="M0 0 C0.66 0.33 1.32 0.66 2 1 C-0.13841847 5.05174027 -2.43805745 7.18358031 -6 10 C-6.95825475 11.08620353 -7.89431785 12.19221797 -8.8125 13.3125 C-10.90377403 15.83153462 -13.0293724 17.92986001 -15.5625 20 C-20.49176339 24.14440981 -24.50266475 29.08414595 -28.60766602 34.02148438 C-29.14705811 34.66279297 -29.6864502 35.30410156 -30.2421875 35.96484375 C-30.7254248 36.5487085 -31.20866211 37.13257324 -31.70654297 37.73413086 C-33 39 -33 39 -35 39 C-35.33 39.99 -35.66 40.98 -36 42 C-37.485 42.495 -37.485 42.495 -39 43 C-40.35278115 44.98689731 -41.68568305 46.98745218 -43 49 C-46 51 -46 51 -49 51 C-48.88597936 48.72858891 -48.75841495 46.45785448 -48.625 44.1875 C-48.55539062 42.92292969 -48.48578125 41.65835938 -48.4140625 40.35546875 C-48 37 -48 37 -46 34 C-45.29835358 32.01200182 -44.62627128 30.01301483 -44 28 C-43.34 28 -42.68 28 -42 28 C-42.04125 26.906875 -42.0825 25.81375 -42.125 24.6875 C-42 21 -42 21 -40 18 C-40.11409682 20.10478604 -40.24165361 22.20884577 -40.375 24.3125 C-40.44460938 25.48425781 -40.51421875 26.65601563 -40.5859375 27.86328125 C-41 31 -41 31 -43 34 C-43.60421492 36.38082853 -44.1390323 38.77975094 -44.625 41.1875 C-44.88539063 42.45980469 -45.14578125 43.73210938 -45.4140625 45.04296875 C-45.60742188 46.01878906 -45.80078125 46.99460937 -46 48 C-43.88410372 45.91929534 -41.91142747 43.88857004 -40.0625 41.5625 C-36.97698788 37.72898494 -33.58692205 34.44086594 -29.75 31.375 C-26.79262734 29.23003634 -26.79262734 29.23003634 -26 26 C-24.43359375 24.4921875 -24.43359375 24.4921875 -22.4375 22.875 C-14.2381799 16.01628636 -14.2381799 16.01628636 -9 7 C-8.01 7 -7.02 7 -6 7 C-6 6.34 -6 5.68 -6 5 C-5.01 4.67 -4.02 4.34 -3 4 C-1.31461399 2.00334686 -1.31461399 2.00334686 0 0 Z " fill="#78797C" transform="translate(403,622)"/>
<path d="M0 0 C-0.33 0.66 -0.66 1.32 -1 2 C-3.56308487 2.4657387 -6.03899103 2.80322712 -8.625 3.0625 C-9.38973633 3.14483887 -10.15447266 3.22717773 -10.94238281 3.31201172 C-22.62533057 4.53150089 -34.24781625 5.17836367 -46 5 C-46 5.66 -46 6.32 -46 7 C-52.63850484 7.42858329 -59.27710405 7.85568104 -65.91577148 8.28173828 C-68.17490818 8.42690239 -70.43402292 8.57240857 -72.69311523 8.71826172 C-75.9372803 8.92765459 -79.18152191 9.13582356 -82.42578125 9.34375 C-83.94465691 9.44218201 -83.94465691 9.44218201 -85.49421692 9.54260254 C-86.90534004 9.63269592 -86.90534004 9.63269592 -88.3449707 9.72460938 C-89.17325882 9.77790405 -90.00154694 9.83119873 -90.85493469 9.8861084 C-92.56796374 9.97706116 -94.2845581 10 -96 10 C-93.68253206 7.68253206 -93.16569616 7.7158429 -90.02514648 7.52929688 C-88.79893837 7.44911316 -88.79893837 7.44911316 -87.54795837 7.36730957 C-86.66459305 7.31828491 -85.78122772 7.26926025 -84.87109375 7.21875 C-83.51383934 7.13022766 -83.51383934 7.13022766 -82.12916565 7.03991699 C-78.24782044 6.78697638 -74.36525742 6.55565165 -70.48266602 6.32275391 C-67.65326132 6.14995499 -64.82474335 5.9659344 -61.99609375 5.78125 C-61.11070419 5.73222534 -60.22531464 5.68320068 -59.31309509 5.63269043 C-57.20273069 5.49415613 -55.09923859 5.25695715 -53 5 C-52.67 4.34 -52.34 3.68 -52 3 C-50.00634766 2.60522461 -50.00634766 2.60522461 -47.4140625 2.40234375 C-46.48335938 2.32306641 -45.55265625 2.24378906 -44.59375 2.16210938 C-43.6140625 2.08798828 -42.634375 2.01386719 -41.625 1.9375 C-39.70026843 1.78306199 -37.77577352 1.62563763 -35.8515625 1.46484375 C-34.99385254 1.399021 -34.13614258 1.33319824 -33.25244141 1.26538086 C-30.83517974 1.05786558 -30.83517974 1.05786558 -28 0 C-23.65417849 -0.35660849 -19.29460819 -0.46664438 -14.9375 -0.625 C-13.72771484 -0.6765625 -12.51792969 -0.728125 -11.27148438 -0.78125 C-10.11841797 -0.82507813 -8.96535156 -0.86890625 -7.77734375 -0.9140625 C-6.18780884 -0.9752124 -6.18780884 -0.9752124 -4.56616211 -1.03759766 C-2 -1 -2 -1 0 0 Z " fill="#8D8E92" transform="translate(554,558)"/>
<path d="M0 0 C1.54397461 0.01353516 1.54397461 0.01353516 3.11914062 0.02734375 C5.60053173 0.05042646 8.0813707 0.0829634 10.5625 0.125 C10.5625 0.455 10.5625 0.785 10.5625 1.125 C8.77199219 1.28935547 8.77199219 1.28935547 6.9453125 1.45703125 C6.12949707 1.53195801 5.31368164 1.60688477 4.47314453 1.68408203 C2.56028161 1.85810059 0.64718011 2.02951044 -1.26611328 2.19873047 C-7.2041413 2.72625043 -13.134125 3.29856989 -19.0625 3.92578125 C-41.2202829 6.20484059 -63.17587471 6.46334894 -85.4375 6.125 C-85.4375 5.795 -85.4375 5.465 -85.4375 5.125 C-84.74418076 5.09185699 -84.05086151 5.05871399 -83.33653259 5.02456665 C-76.73333486 4.70777085 -70.13047133 4.38477107 -63.52789974 4.05517006 C-60.13520533 3.88601584 -56.7424349 3.71908371 -53.34936523 3.55761719 C-34.36882678 2.69547525 -34.36882678 2.69547525 -15.50952148 0.52197266 C-10.3405206 -0.1459758 -5.20262383 -0.08975993 0 0 Z " fill="#828285" transform="translate(556.4375,466.875)"/>
<path d="M0 0 C-0.33 0.99 -0.66 1.98 -1 3 C-3.9218607 3.97395357 -6.01811745 4.17847145 -9.0703125 4.28125 C-10.04871094 4.31863281 -11.02710938 4.35601562 -12.03515625 4.39453125 C-14.10285551 4.46511011 -16.17056394 4.53542061 -18.23828125 4.60546875 C-19.21410156 4.64285156 -20.18992187 4.68023437 -21.1953125 4.71875 C-22.54133545 4.76418945 -22.54133545 4.76418945 -23.91455078 4.81054688 C-25.987951 4.77453999 -25.987951 4.77453999 -27 6 C-29.70058552 6.24803065 -32.37482457 6.42770376 -35.08203125 6.55859375 C-35.92433792 6.60084579 -36.76664459 6.64309784 -37.63447571 6.68663025 C-48.31587116 7.1706972 -58.99788525 7.10817843 -69.6875 7.0625 C-71.76887911 7.05746742 -73.85025943 7.05290766 -75.93164062 7.04882812 C-80.95445755 7.03797916 -85.9772149 7.02081486 -91 7 C-91 6.67 -91 6.34 -91 6 C-89.78570313 5.95512451 -88.57140625 5.91024902 -87.3203125 5.86401367 C-65.25381155 5.03713642 -43.20905921 4.09761592 -21.1875 2.4375 C-19.89017944 2.34159073 -19.89017944 2.34159073 -18.56665039 2.2437439 C-16.14160681 2.062725 -13.71722046 1.87489774 -11.29296875 1.68359375 C-10.5774736 1.62947327 -9.86197845 1.57535278 -9.12480164 1.51959229 C-5.95056502 1.25812474 -3.03685954 0 0 0 Z " fill="#242529" transform="translate(689,459)"/>
<path d="M0 0 C0.85658203 0.00451172 1.71316406 0.00902344 2.59570312 0.01367188 C4.66800033 0.02524895 6.74026058 0.04317341 8.8125 0.0625 C8.8125 2.0425 8.8125 4.0225 8.8125 6.0625 C7.35744642 6.59242692 5.89831873 7.1111789 4.4375 7.625 C3.62539063 7.91503906 2.81328125 8.20507812 1.9765625 8.50390625 C-0.1875 9.0625 -0.1875 9.0625 -2.1875 8.0625 C2.5625 5.0625 2.5625 5.0625 4.8125 5.0625 C4.8125 4.0725 4.8125 3.0825 4.8125 2.0625 C4.17817551 2.08755615 3.54385101 2.1126123 2.89030457 2.13842773 C-3.81132497 2.40240604 -10.51314422 2.66111641 -17.21508789 2.91699219 C-19.70439625 3.01269159 -22.19365617 3.10966069 -24.68286133 3.20800781 C-39.1917403 3.78030411 -53.66657438 4.2237814 -68.1875 4.0625 C-68.1875 3.7325 -68.1875 3.4025 -68.1875 3.0625 C-67.62310715 3.03966446 -67.05871429 3.01682892 -66.47721863 2.99330139 C-60.5550678 2.75314534 -54.633085 2.50912062 -48.71118164 2.26293945 C-46.50679463 2.17179575 -44.30236783 2.08160886 -42.09790039 1.99243164 C-38.91281133 1.86341355 -35.72788553 1.73085205 -32.54296875 1.59765625 C-31.57167526 1.55906998 -30.60038177 1.5204837 -29.59965515 1.48072815 C-23.94655484 1.24041227 -18.33507681 0.84198068 -12.70532227 0.27197266 C-8.47116115 -0.08029247 -4.24557151 -0.04369947 0 0 Z " fill="#77797B" transform="translate(626.1875,500.9375)"/>
<path d="M0 0 C1.21453857 -0.00451172 2.42907715 -0.00902344 3.68041992 -0.01367188 C11.2318922 -0.00134378 18.67397766 0.36752238 26.1875 1.125 C26.1875 1.455 26.1875 1.785 26.1875 2.125 C6.84237328 2.8596498 -12.45038552 3.27966848 -31.8125 3.125 C-31.8125 2.465 -31.8125 1.805 -31.8125 1.125 C-21.20566499 0.26540122 -10.63996671 0.01627425 0 0 Z " fill="#040507" transform="translate(570.8125,499.875)"/>
<path d="M0 0 C-2.34285501 2.34285501 -2.82511247 2.26154309 -6 2.34375 C-6.80018555 2.37194824 -7.60037109 2.40014648 -8.42480469 2.42919922 C-9.27461914 2.45256348 -10.12443359 2.47592773 -11 2.5 C-20.72377089 2.89410876 -29.09503136 3.79037846 -38 8 C-39.5803057 8.73570534 -41.16378046 9.46463345 -42.75 10.1875 C-43.85601562 10.70376953 -43.85601562 10.70376953 -44.984375 11.23046875 C-47 12 -47 12 -50 12 C-50 12.66 -50 13.32 -50 14 C-51.98 14 -53.96 14 -56 14 C-50.56652839 7.60768046 -42.11971569 5.46014549 -34.375 3.25 C-32.74220093 2.78388306 -32.74220093 2.78388306 -31.07641602 2.30834961 C-20.61393384 -0.46285182 -10.74049615 -0.71151552 0 0 Z " fill="#A7A7AB" transform="translate(489,509)"/>
<path d="M0 0 C-0.79101562 3.85058594 -0.79101562 3.85058594 -2.671875 5.1953125 C-3.35765625 5.50210937 -4.0434375 5.80890625 -4.75 6.125 C-5.46671875 6.45242188 -6.1834375 6.77984375 -6.921875 7.1171875 C-9.26887223 8.11422016 -11.61209266 9.10453475 -14 10 C-14 9.34 -14 8.68 -14 8 C-11.03 6.35 -8.06 4.7 -5 3 C-22.82 2.67 -40.64 2.34 -59 2 C-59 1.67 -59 1.34 -59 1 C-39.32018056 0.24770109 -19.6964487 -0.15038989 0 0 Z " fill="#A1A3A6" transform="translate(753,413)"/>
<path d="M0 0 C0 0.33 0 0.66 0 1 C-7.14890815 1.43310539 -14.29818991 1.85959908 -21.44775391 2.28173828 C-23.87427464 2.42576361 -26.30070971 2.57124065 -28.72705078 2.71826172 C-54.59792872 4.28393445 -54.59792872 4.28393445 -66 4 C-58.58067787 -0.94621476 -46.47782687 0.67110568 -37.6875 0.4375 C-36.9372052 0.41632111 -36.1869104 0.39514221 -35.41387939 0.37332153 C-23.60756048 0.04035189 -11.8112897 -0.13059166 0 0 Z " fill="#6E7073" transform="translate(558,505)"/>
<path d="M0 0 C0 4.22023957 -1.85196466 6.668279 -4.5625 9.8125 C-6 11 -6 11 -8 11 C-8.144375 12.299375 -8.28875 13.59875 -8.4375 14.9375 C-8.875 18.875 -8.875 18.875 -10 20 C-10.0825 20.928125 -10.165 21.85625 -10.25 22.8125 C-10.85193415 27.54059565 -12.83689354 31.63657529 -14.72265625 35.9765625 C-16.38979252 39.92262816 -17.70729093 43.91776085 -19 48 C-19.33 48 -19.66 48 -20 48 C-20.5196087 42.93381522 -19.15106989 39.76415631 -17.01953125 35.3203125 C-15.54457503 31.96351558 -14.82773391 28.56562298 -14 25 C-13.67 24.67 -13.34 24.34 -13 24 C-12.70265494 22.46322652 -12.4372563 20.92022121 -12.1875 19.375 C-11.27105883 14.50596904 -9.69449221 11.13155473 -7 7 C-6.34 7 -5.68 7 -5 7 C-4.731875 6.401875 -4.46375 5.80375 -4.1875 5.1875 C-3.01506533 3.02775192 -1.80630718 1.64209744 0 0 Z " fill="#A9AAAD" transform="translate(392,558)"/>
<path d="M0 0 C0.91787677 3.02968349 1.04344865 5.42271419 0.6875 8.5625 C0.56955078 9.70912109 0.56955078 9.70912109 0.44921875 10.87890625 C0 13 0 13 -2 16 C-2.60421492 18.38082853 -3.1390323 20.77975094 -3.625 23.1875 C-4.01558594 25.09595703 -4.01558594 25.09595703 -4.4140625 27.04296875 C-4.60742188 28.01878906 -4.80078125 28.99460937 -5 30 C-2.09718645 27.14597323 0.49918443 24.2153343 3 21 C3.66 21.33 4.32 21.66 5 22 C3.9015258 23.46262592 2.7959964 24.91995503 1.6875 26.375 C1.07261719 27.18710937 0.45773437 27.99921875 -0.17578125 28.8359375 C-2 31 -2 31 -5 33 C-5.99 33 -6.98 33 -8 33 C-7.88597936 30.72858891 -7.75841495 28.45785448 -7.625 26.1875 C-7.55539062 24.92292969 -7.48578125 23.65835938 -7.4140625 22.35546875 C-7 19 -7 19 -5 16 C-4.29835358 14.01200182 -3.62627128 12.01301483 -3 10 C-2.34 10 -1.68 10 -1 10 C-1.020625 8.906875 -1.04125 7.81375 -1.0625 6.6875 C-1 3 -1 3 0 0 Z " fill="#96969B" transform="translate(362,640)"/>
<path d="M0 0 C-0.639375 0.103125 -1.27875 0.20625 -1.9375 0.3125 C-2.618125 0.539375 -3.29875 0.76625 -4 1 C-4.33 1.99 -4.66 2.98 -5 4 C-6.68167249 5.02219308 -8.37069118 6.03562481 -10.10546875 6.96484375 C-12.22795779 8.08854589 -12.22795779 8.08854589 -15 10 C-17.21145948 11.47430632 -19.36899784 12.78416443 -21.6875 14.0625 C-24.37995571 15.63733258 -25.91483733 16.82005721 -28 19 C-30.91153462 20.86636835 -33.88508292 22.50022511 -37 24 C-37 23.34 -37 22.68 -37 22 C-35.3125 20.484375 -35.3125 20.484375 -33 18.75 C-32.17757813 18.12996094 -31.35515625 17.50992187 -30.5078125 16.87109375 C-29.68023437 16.25363281 -28.85265625 15.63617188 -28 15 C-27.29617188 14.45472656 -26.59234375 13.90945313 -25.8671875 13.34765625 C-15.03435115 5 -15.03435115 5 -11 5 C-10.67 4.01 -10.34 3.02 -10 2 C-9.01 2 -8.02 2 -7 2 C-7 1.34 -7 0.68 -7 0 C-2.25 -1.125 -2.25 -1.125 0 0 Z " fill="#9A9B9E" transform="translate(471,474)"/>
<path d="M0 0 C0 0.99 0 1.98 0 3 C-1.32 3.33 -2.64 3.66 -4 4 C-4 3.67 -4 3.34 -4 3 C-28.75 2.505 -28.75 2.505 -54 2 C-54 1.67 -54 1.34 -54 1 C-35.99150604 0.33360951 -18.02386816 -0.1607679 0 0 Z " fill="#CACBCD" transform="translate(631,503)"/>
<path d="M0 0 C0.66 0.33 1.32 0.66 2 1 C-0.50181186 5.75344253 -0.50181186 5.75344253 -2.91796875 6.94921875 C-5.29391637 8.14833678 -6.39049038 9.38062883 -8.0625 11.4375 C-11.97794492 16.09347472 -16.27264384 20.26324233 -20.64453125 24.484375 C-22.72974076 26.71136493 -23.69862453 28.3258656 -25 31 C-26.875 32.88671875 -26.875 32.88671875 -29 34.6875 C-29.70125 35.28949219 -30.4025 35.89148438 -31.125 36.51171875 C-33 38 -33 38 -35 39 C-33.4281491 35.14182051 -30.95541898 32.889743 -28 30 C-26.99206374 28.84018294 -25.99288016 27.6727319 -25 26.5 C-21.13039482 22.01671294 -16.93886309 17.88182164 -12.70703125 13.74414062 C-9.23144026 10.3229866 -6.08040604 6.78123916 -3 3 C-2.01709032 1.98319689 -1.02665213 0.97261781 0 0 Z " fill="#97989B" transform="translate(440,583)"/>
<path d="M0 0 C1.08414973 3.24517301 0.91989484 4.95932226 -0.3125 8.125 C-2.08197278 13.00322542 -3.09484799 17.8992022 -4 23 C-4.66 23 -5.32 23 -6 23 C-6.03738281 23.59425781 -6.07476562 24.18851562 -6.11328125 24.80078125 C-6.6423618 31.47134587 -8.06622416 37.60272899 -10 44 C-10.98235258 40.81658676 -11.02156168 38.24321485 -10.6875 34.9375 C-10.60886719 34.08027344 -10.53023438 33.22304688 -10.44921875 32.33984375 C-10 30 -10 30 -8 27 C-7.855625 25.96875 -7.71125 24.9375 -7.5625 23.875 C-6.90455748 19.34250708 -5.54807612 15.29372056 -4 11 C-3.34 11 -2.68 11 -2 11 C-2.061875 9.1128125 -2.061875 9.1128125 -2.125 7.1875 C-2.2390374 3.70935927 -2.05925681 3.08888522 0 0 Z " fill="#737679" transform="translate(410,462)"/>
<path d="M0 0 C1.8871875 0.061875 1.8871875 0.061875 3.8125 0.125 C0.65780798 2.22812802 -1.79773207 2.99449333 -5.4375 4 C-7.29761719 4.52013672 -7.29761719 4.52013672 -9.1953125 5.05078125 C-11.89165007 5.78523639 -14.59455872 6.48626021 -17.3046875 7.16796875 C-17.97467773 7.33893066 -18.64466797 7.50989258 -19.33496094 7.68603516 C-21.2237937 8.16500583 -23.11574221 8.63163894 -25.0078125 9.09765625 C-28.00780964 10.06694279 -29.84046627 11.06404749 -32.1875 13.125 C-32.8475 12.795 -33.5075 12.465 -34.1875 12.125 C-26.9978432 5.98301632 -18.70731497 2.65845892 -9.24609375 2.36328125 C-5.63975815 1.94584961 -3.87202384 -0.1269516 0 0 Z " fill="#B5B5B7" transform="translate(469.1875,418.875)"/>
<path d="M0 0 C0.66 0.33 1.32 0.66 2 1 C1.19175781 1.59167969 0.38351562 2.18335938 -0.44921875 2.79296875 C-1.52880822 3.59092618 -2.60822616 4.38911572 -3.6875 5.1875 C-4.74324219 5.96480469 -5.79898437 6.74210938 -6.88671875 7.54296875 C-9.82756455 9.8639123 -12.39025671 12.31912231 -15 15 C-17 16.66666667 -19 18.33333333 -21 20 C-21.845625 20.845625 -22.69125 21.69125 -23.5625 22.5625 C-25.91678161 24.91678161 -28.36612915 26.96815678 -31 29 C-28.58168065 23.28397244 -24.01534297 17.74572488 -18.625 14.625 C-16.22050032 13.1365002 -14.59614362 11.57331819 -12.66796875 9.5390625 C-8.78695499 5.95798657 -4.30819077 3.04063202 0 0 Z " fill="#6D6F73" transform="translate(424,527)"/>
<path d="M0 0 C0 0.33 0 0.66 0 1 C-15.00965581 2.89228219 -29.84406957 4.23002255 -45 4 C-45 3.67 -45 3.34 -45 3 C-29.95647265 1.1107661 -15.17373669 -0.53554365 0 0 Z " fill="#646569" transform="translate(553,559)"/>
<path d="M0 0 C-0.33 0.99 -0.66 1.98 -1 3 C-3.65696758 3.88565586 -5.28190083 4.1450262 -8.01245117 4.20532227 C-8.81305466 4.22526749 -9.61365814 4.24521271 -10.43852234 4.26576233 C-11.29798965 4.28247482 -12.15745697 4.29918732 -13.04296875 4.31640625 C-13.9265657 4.33718735 -14.81016266 4.35796844 -15.72053528 4.37937927 C-18.54277785 4.44475754 -21.36511335 4.50370528 -24.1875 4.5625 C-26.10092106 4.60569637 -28.01433273 4.64931102 -29.92773438 4.69335938 C-34.61839437 4.80042695 -39.30914783 4.90172752 -44 5 C-44 4.67 -44 4.34 -44 4 C-42.79875488 3.91435791 -41.59750977 3.82871582 -40.35986328 3.74047852 C-35.91293409 3.42231722 -31.46642357 3.09860483 -27.02001953 2.77319336 C-25.09369739 2.63299973 -23.16726431 2.49432193 -21.24072266 2.35717773 C-18.47528161 2.16005288 -15.71028229 1.95752147 -12.9453125 1.75390625 C-12.0806839 1.6934462 -11.2160553 1.63298615 -10.32522583 1.57069397 C-6.78144645 1.30519467 -3.3723807 0 0 0 Z " fill="#3D3E43" transform="translate(689,459)"/>
<path d="M0 0 C0.33 0 0.66 0 1 0 C0.26394015 8.36783833 -1.55643162 15.87978229 -4.26953125 23.8125 C-5.28347405 26.84890624 -6.14669485 29.91497367 -7 33 C-8.61323505 28.96691237 -7.20687236 26.02290786 -6 22 C-5.5707788 19.3360293 -5.28265686 16.68524013 -5 14 C-4.01 13.67 -3.02 13.34 -2 13 C-1.93941406 12.31292969 -1.87882812 11.62585938 -1.81640625 10.91796875 C-1.73261719 10.01691406 -1.64882813 9.11585938 -1.5625 8.1875 C-1.48128906 7.29417969 -1.40007812 6.40085937 -1.31640625 5.48046875 C-1 3 -1 3 0 0 Z " fill="#838487" transform="translate(371,607)"/>
<path d="M0 0 C1.12591553 0.00523682 2.25183105 0.01047363 3.41186523 0.01586914 C4.62680664 0.0190918 5.84174805 0.02231445 7.09350586 0.02563477 C8.37290039 0.03401367 9.65229492 0.04239258 10.97045898 0.05102539 C12.2537207 0.05553711 13.53698242 0.06004883 14.85913086 0.06469727 C18.04211921 0.07652994 21.22501661 0.09301471 24.40795898 0.11352539 C24.40795898 0.44352539 24.40795898 0.77352539 24.40795898 1.11352539 C-2.54968842 3.50129345 -2.54968842 3.50129345 -14.59204102 3.11352539 C-14.59204102 2.78352539 -14.59204102 2.45352539 -14.59204102 2.11352539 C-13.80958008 2.05293945 -13.02711914 1.99235352 -12.22094727 1.92993164 C-11.2090332 1.84614258 -10.19711914 1.76235352 -9.15454102 1.67602539 C-8.14520508 1.59481445 -7.13586914 1.51360352 -6.09594727 1.42993164 C-3.19188258 1.06295935 -2.9540453 0.12938034 0 0 Z " fill="#B4B5B8" transform="translate(476.592041015625,562.886474609375)"/>
<path d="M0 0 C0.66 0.33 1.32 0.66 2 1 C-0.30527683 4.45791525 -1.28260484 4.53033215 -5 6 C-5.825 6.66 -6.65 7.32 -7.5 8 C-10 10 -10 10 -12.3125 10.875 C-15.75197424 12.31477991 -18.27751789 14.48346331 -21.1328125 16.85546875 C-21.74898437 17.23316406 -22.36515625 17.61085938 -23 18 C-23.99 17.67 -24.98 17.34 -26 17 C-24.74405788 14.48811576 -23.7692029 14.2709532 -21.25 13.125 C-17.75123349 11.453575 -15.01628076 9.44563305 -12 7 C-11.21625 6.690625 -10.4325 6.38125 -9.625 6.0625 C-5.96323561 4.58035727 -3.1654907 2.35860091 0 0 Z " fill="#AAABAF" transform="translate(717,438)"/>
<path d="M0 0 C1.33495946 2.66991893 0.77924641 4.0383683 0.1875 6.9375 C0.01605469 7.81277344 -0.15539062 8.68804688 -0.33203125 9.58984375 C-1 12 -1 12 -3 15 C-3.51679327 16.97027436 -4.0301497 18.94195228 -4.4921875 20.92578125 C-5.16525656 23.6750095 -6.06549272 26.3299792 -7 29 C-7.33 29 -7.66 29 -8 29 C-8.1953125 22.9453125 -8.1953125 22.9453125 -8 21 C-7.34 20.34 -6.68 19.68 -6 19 C-5.53993654 16.79749008 -5.53993654 16.79749008 -5.375 14.375 C-5.26285156 13.14910156 -5.26285156 13.14910156 -5.1484375 11.8984375 C-5.09945313 11.27195312 -5.05046875 10.64546875 -5 10 C-4.01 9.67 -3.02 9.34 -2 9 C-1.855625 7.700625 -1.71125 6.40125 -1.5625 5.0625 C-1.125 1.125 -1.125 1.125 0 0 Z " fill="#2D2E32" transform="translate(381,570)"/>
<path d="M0 0 C1.4703026 4.97209199 1.30454835 10.17347857 -0.890625 14.9296875 C-1.90509154 16.63308282 -2.95208065 18.31697801 -4 20 C-4.72045764 21.9812585 -5.40781343 23.97669589 -6 26 C-6.33 26 -6.66 26 -7 26 C-7.25 19.375 -7.25 19.375 -5 16 C-4.29835358 14.01200182 -3.62627128 12.01301483 -3 10 C-2.34 10 -1.68 10 -1 10 C-1.020625 8.906875 -1.04125 7.81375 -1.0625 6.6875 C-1 3 -1 3 0 0 Z " fill="#434449" transform="translate(362,640)"/>
<path d="M0 0 C6.27 0 12.54 0 19 0 C19 1.98 19 3.96 19 6 C17.54494642 6.52992692 16.08581873 7.0486789 14.625 7.5625 C13.40683594 7.99755859 13.40683594 7.99755859 12.1640625 8.44140625 C10 9 10 9 8 8 C8.63808594 7.66226562 9.27617188 7.32453125 9.93359375 6.9765625 C10.75988281 6.53054688 11.58617187 6.08453125 12.4375 5.625 C13.67306641 4.96371094 13.67306641 4.96371094 14.93359375 4.2890625 C17.13466578 3.16581441 17.13466578 3.16581441 18 1 C12.06 1 6.12 1 0 1 C0 0.67 0 0.34 0 0 Z " fill="#4D5053" transform="translate(616,501)"/>
<path d="M0 0 C-0.74765625 0.53109375 -1.4953125 1.0621875 -2.265625 1.609375 C-3.25046875 2.31578125 -4.2353125 3.0221875 -5.25 3.75 C-6.22453125 4.44609375 -7.1990625 5.1421875 -8.203125 5.859375 C-10.99444603 7.89308789 -10.99444603 7.89308789 -13.15625 10.1875 C-15.52579107 12.51687936 -17.833166 13.136318 -21 14 C-19 11 -19 11 -16.6875 9.6875 C-13.78821042 8.07556063 -13.78821042 8.07556063 -11.625 5 C-8.78942664 1.75934473 -4.51515867 -2.25757934 0 0 Z " fill="#7A7B7F" transform="translate(624,511)"/>
<path d="M0 0 C0.99 0.66 1.98 1.32 3 2 C-0.75 5 -0.75 5 -3 5 C-3.09152344 5.60328125 -3.18304688 6.2065625 -3.27734375 6.828125 C-4.17720492 9.53257263 -5.20702019 10.2082314 -7.5625 11.75 C-8.20316406 12.17796875 -8.84382813 12.6059375 -9.50390625 13.046875 C-10.24447266 13.51867187 -10.24447266 13.51867187 -11 14 C-11.66 13.67 -12.32 13.34 -13 13 C-8.71 8.71 -4.42 4.42 0 0 Z " fill="#323338" transform="translate(429,597)"/>
<path d="M0 0 C1.45606519 4.52092968 0.27032841 7.51648796 -1 12 C0.32 11.67 1.64 11.34 3 11 C2.34 12.32 1.68 13.64 1 15 C-0.65 15 -2.3 15 -4 15 C-4.59720137 9.17728663 -2.528243 5.0790596 0 0 Z " fill="#4D4F54" transform="translate(394,515)"/>
<path d="M0 0 C1.44715727 3.87186448 0.5441918 6.8232328 -0.4375 10.75 C-0.72496094 11.92046875 -1.01242187 13.0909375 -1.30859375 14.296875 C-1.53675781 15.18890625 -1.76492188 16.0809375 -2 17 C-2.66 17 -3.32 17 -4 17 C-4.33 18.32 -4.66 19.64 -5 21 C-5.38425691 13.6991188 -4.40355884 6.00485297 0 0 Z " fill="#AEAEB2" transform="translate(398,506)"/>
<path d="M0 0 C1.32 0.33 2.64 0.66 4 1 C1.70507812 2.85546875 1.70507812 2.85546875 -0.58984375 4.7109375 C-2.13266437 5.9666391 -2.13266437 5.9666391 -3 8 C-7.62 8 -12.24 8 -17 8 C-17 7.67 -17 7.34 -17 7 C-13.37 7 -9.74 7 -6 7 C-5.67 6.01 -5.34 5.02 -5 4 C-4.01 3.67 -3.02 3.34 -2 3 C-1.34 2.01 -0.68 1.02 0 0 Z " fill="#26272B" transform="translate(559,553)"/>
<path d="M0 0 C-0.78503906 0.31453125 -1.57007813 0.6290625 -2.37890625 0.953125 C-9.42977361 3.79974313 -9.42977361 3.79974313 -16.125 7.375 C-17.07375 7.91125 -18.0225 8.4475 -19 9 C-19.66 8.67 -20.32 8.34 -21 8 C-17.49906568 4.98906754 -14.19431119 2.9687952 -9.9375 1.1875 C-8.91527344 0.74792969 -7.89304687 0.30835938 -6.83984375 -0.14453125 C-3.96318575 -1.01108985 -2.748916 -1.07451633 0 0 Z " fill="#707174" transform="translate(456,423)"/>
<path d="M0 0 C0.66 0.33 1.32 0.66 2 1 C-0.25682046 5.63901983 -2.48913845 6.74456922 -7 9 C-8.87264013 10.89214679 -10.38909268 12.86791679 -12 15 C-12 11.38462395 -11.10770759 9.88834003 -9 7 C-8.01 7 -7.02 7 -6 7 C-6 6.34 -6 5.68 -6 5 C-5.01 4.67 -4.02 4.34 -3 4 C-1.31461399 2.00334686 -1.31461399 2.00334686 0 0 Z " fill="#A8AAAD" transform="translate(403,622)"/>
<path d="M0 0 C0.66 0.33 1.32 0.66 2 1 C-2.16272163 6.47100557 -5.24232403 8.49829423 -12 10 C-9.44340192 5.78913258 -6.2201838 4.30191844 -2 2 C-1.34 1.34 -0.68 0.68 0 0 Z " fill="#2A2B2F" transform="translate(579,540)"/>
<path d="M0 0 C-0.94875 0.268125 -1.8975 0.53625 -2.875 0.8125 C-6.25267273 1.74986588 -6.25267273 1.74986588 -8 5 C-8.99 5 -9.98 5 -11 5 C-11 5.66 -11 6.32 -11 7 C-12.98 7 -14.96 7 -17 7 C-13.4051426 2.770756 -5.64816809 -2.82408405 0 0 Z " fill="#818285" transform="translate(450,516)"/>
<path d="M0 0 C0.66 0.33 1.32 0.66 2 1 C0.92456217 1.98783194 -0.16073217 2.96493943 -1.25 3.9375 C-2.15492188 4.75541016 -2.15492188 4.75541016 -3.078125 5.58984375 C-5 7 -5 7 -7.109375 7.50390625 C-9.40054276 7.88145943 -9.40054276 7.88145943 -11 11 C-11.99 10.67 -12.98 10.34 -14 10 C-12.47005208 8.76302083 -10.94010417 7.52604167 -9.41015625 6.2890625 C-7.86733563 5.0333609 -7.86733563 5.0333609 -7 3 C-5.01276732 2.29618843 -3.01222047 1.6288189 -1 1 C-0.67 0.67 -0.34 0.34 0 0 Z " fill="#9A9B9D" transform="translate(568,546)"/>
<path d="M0 0 C0.66 0.33 1.32 0.66 2 1 C0.7934375 2.2684375 0.7934375 2.2684375 -0.4375 3.5625 C-3.23881589 6.8988987 -3.60504173 9.65545899 -4 14 C-5.0625 16.9375 -5.0625 16.9375 -6 19 C-6.33 19 -6.66 19 -7 19 C-7.48233979 11.12178341 -5.16462533 5.87698745 0 0 Z " fill="#56575A" transform="translate(418,443)"/>
<path d="M0 0 C0 3.61186134 -0.52269616 4.44011936 -3 7 C-6.2063657 8.33598571 -8.52315744 9 -12 9 C-9.62202997 6.37171734 -7.04670659 4.783438 -4 3 C-2.65368175 2.01755155 -1.31558703 1.02323436 0 0 Z " fill="#38393C" transform="translate(449,487)"/>
<path d="M0 0 C0.66 0.33 1.32 0.66 2 1 C-3.53846154 6.84615385 -3.53846154 6.84615385 -7 8 C-7.99 7.67 -8.98 7.34 -10 7 C-6.7 4.69 -3.4 2.38 0 0 Z " fill="#1C1D21" transform="translate(624,510)"/>
<path d="M0 0 C0.66 0.33 1.32 0.66 2 1 C-0.30527683 4.45791525 -1.28260484 4.53033215 -5 6 C-6.70294787 7.28667172 -8.37946188 8.61096733 -10 10 C-10.66 9.67 -11.32 9.34 -12 9 C-10.56351736 7.87370125 -9.12577415 6.7490101 -7.6875 5.625 C-6.88699219 4.99851562 -6.08648438 4.37203125 -5.26171875 3.7265625 C-3.55336788 2.42243282 -1.78827274 1.19218183 0 0 Z " fill="#737476" transform="translate(717,438)"/>
<path d="M0 0 C2.0625 0.4375 2.0625 0.4375 4 1 C0.86843697 3.08770869 -0.31301186 3.30633317 -3.9375 3.5625 C-7.07638408 3.79448389 -9.96622852 4.14829153 -13 5 C-12.67 4.01 -12.34 3.02 -12 2 C-11.21753906 1.93941406 -10.43507813 1.87882812 -9.62890625 1.81640625 C-8.61699219 1.73261719 -7.60507812 1.64882813 -6.5625 1.5625 C-5.55316406 1.48128906 -4.54382813 1.40007812 -3.50390625 1.31640625 C-1.06359221 1.26788532 -1.06359221 1.26788532 0 0 Z " fill="#36373A" transform="translate(461,419)"/>
<path d="M0 0 C0 4.32991847 -2.11505369 5.91377837 -5 9 C-5.99 9.33 -6.98 9.66 -8 10 C-8 9.34 -8 8.68 -8 8 C-7.34 8 -6.68 8 -6 8 C-6.33 6.68 -6.66 5.36 -7 4 C-6.030625 3.525625 -5.06125 3.05125 -4.0625 2.5625 C-1.19522563 1.29806053 -1.19522563 1.29806053 0 0 Z " fill="#424347" transform="translate(392,556)"/>
<path d="M0 0 C0.66 0.33 1.32 0.66 2 1 C1.67 1.66 1.34 2.32 1 3 C0.01 3 -0.98 3 -2 3 C-2 3.99 -2 4.98 -2 6 C-5 8.1875 -5 8.1875 -8 10 C-8.66 9.67 -9.32 9.34 -10 9 C-6.83047153 5.73991357 -3.60062011 2.77762123 0 0 Z " fill="#D1D2D4" transform="translate(418,533)"/>
<path d="M0 0 C-4.29833361 3.14512215 -7.82069003 4.75696561 -13 6 C-5.46629213 -1.95224719 -5.46629213 -1.95224719 0 0 Z " fill="#C4C5C8" transform="translate(437,524)"/>
<path d="M0 0 C0.33 0 0.66 0 1 0 C0.88601335 1.62580966 0.75844341 3.25067157 0.625 4.875 C0.52058594 6.23238281 0.52058594 6.23238281 0.4140625 7.6171875 C0 10 0 10 -2 12 C-2 8.7 -2 5.4 -2 2 C-1.34 2 -0.68 2 0 2 C0 1.34 0 0.68 0 0 Z " fill="#3A3B3E" transform="translate(399,496)"/>
<path d="M0 0 C0 3 0 3 -1.75 4.82421875 C-2.4925 5.43910156 -3.235 6.05398438 -4 6.6875 C-4.7425 7.31011719 -5.485 7.93273437 -6.25 8.57421875 C-6.8275 9.04472656 -7.405 9.51523437 -8 10 C-8.66 9.67 -9.32 9.34 -10 9 C-8.625 7.5 -8.625 7.5 -7 6 C-6.34 6 -5.68 6 -5 6 C-4.67 5.01 -4.34 4.02 -4 3 C-1.9375 1.3125 -1.9375 1.3125 0 0 Z " fill="#E0E1E4" transform="translate(407,543)"/>
<path d="M0 0 C0.66 0.33 1.32 0.66 2 1 C-0.76922851 4.07692057 -3.02850024 5.77800007 -7 7 C-7.99 7 -8.98 7 -10 7 C-3.23076923 1.15384615 -3.23076923 1.15384615 0 0 Z " fill="#ACADB1" transform="translate(589,532)"/>
<path d="M0 0 C0.66 0 1.32 0 2 0 C2.33 1.32 2.66 2.64 3 4 C-1.43076923 6.09230769 -1.43076923 6.09230769 -4.3125 5.625 C-4.869375 5.41875 -5.42625 5.2125 -6 5 C-5.38125 4.731875 -4.7625 4.46375 -4.125 4.1875 C-1.7004767 3.04443152 -1.7004767 3.04443152 0 0 Z " fill="#12151A" transform="translate(397,526)"/>
<path d="M0 0 C0.90550946 3.01150495 1.06723758 5.43770987 0.75 8.5625 C0.68296875 9.32691406 0.6159375 10.09132813 0.546875 10.87890625 C-0.09694852 13.37602176 -1.05228884 14.36120002 -3 16 C-2.152874 10.63486869 -1.08318169 5.3212615 0 0 Z " fill="#8C8D91" transform="translate(362,640)"/>
<path d="M0 0 C-0.33 0.99 -0.66 1.98 -1 3 C-1.66 3 -2.32 3 -3 3 C-3.33 3.99 -3.66 4.98 -4 6 C-6.5625 7.1875 -6.5625 7.1875 -9 8 C-8.21366078 6.85050412 -7.42073742 5.70551011 -6.625 4.5625 C-6.18414062 3.92441406 -5.74328125 3.28632812 -5.2890625 2.62890625 C-3.63708041 0.54140161 -2.66927652 0 0 0 Z " fill="#2F3033" transform="translate(439,589)"/>
<path d="M0 0 C1.32976123 2.65952246 0.81122428 4.04209293 0.25 6.9375 C0.09015625 7.81277344 -0.0696875 8.68804688 -0.234375 9.58984375 C-1.05683246 12.17890625 -1.93732743 13.28299509 -4 15 C-3.32584613 9.7415998 -1.75734451 4.97361654 0 0 Z " fill="#55565B" transform="translate(381,570)"/>
<path d="M0 0 C0.66 0.33 1.32 0.66 2 1 C1.09972412 2.03531726 0.17906965 3.05294165 -0.75 4.0625 C-1.51570312 4.91521484 -1.51570312 4.91521484 -2.296875 5.78515625 C-4 7 -4 7 -6.203125 6.68359375 C-6.79609375 6.45800781 -7.3890625 6.23242188 -8 6 C-5.63404067 3.38499232 -3.13950774 1.61000397 0 0 Z " fill="#4A4C50" transform="translate(745,419)"/>
<path d="M0 0 C1.13732426 3.40401948 0.83989957 5.77456664 0.0625 9.25 C-0.13214844 10.14203125 -0.32679688 11.0340625 -0.52734375 11.953125 C-0.68332031 12.62859375 -0.83929688 13.3040625 -1 14 C-1.33 14 -1.66 14 -2 14 C-2 10.04 -2 6.08 -2 2 C-1.34 2 -0.68 2 0 2 C0 1.34 0 0.68 0 0 Z " fill="#28292E" transform="translate(362,636)"/>
<path d="M0 0 C1.18771723 3.42943519 0.80226223 5.37784675 -0.4375 8.75 C-0.86869141 9.94882812 -0.86869141 9.94882812 -1.30859375 11.171875 C-1.65083984 12.07679688 -1.65083984 12.07679688 -2 13 C-3.59785089 9.80429821 -2.77115111 6.38635924 -2 3 C-1.34 2.01 -0.68 1.02 0 0 Z " fill="#696A6F" transform="translate(410,462)"/>
<path d="M0 0 C-0.33 0.99 -0.66 1.98 -1 3 C-5.95 3 -10.9 3 -16 3 C-16 2.67 -16 2.34 -16 2 C-15.15695312 1.93941406 -14.31390625 1.87882812 -13.4453125 1.81640625 C-12.34960938 1.73261719 -11.25390625 1.64882813 -10.125 1.5625 C-9.03445313 1.48128906 -7.94390625 1.40007812 -6.8203125 1.31640625 C-4.26398303 1.02961583 -2.50524575 0 0 0 Z " fill="#616267" transform="translate(689,459)"/>
<path d="M0 0 C0.66 0.33 1.32 0.66 2 1 C0.02 3.31 -1.96 5.62 -4 8 C-5.32 7.67 -6.64 7.34 -8 7 C-5.36 4.69 -2.72 2.38 0 0 Z " fill="#39393E" transform="translate(726,432)"/>
<path d="M0 0 C1.32 0.33 2.64 0.66 4 1 C0.92000054 4.67230705 -1.2482602 5.56802365 -6 6 C-5 4 -5 4 -2 3 C-1.34 2.01 -0.68 1.02 0 0 Z " fill="#3D3E42" transform="translate(559,553)"/>
<path d="M0 0 C0 3 0 3 -1 5 C-4.0625 5.625 -4.0625 5.625 -7 6 C-2.25 1.125 -2.25 1.125 0 0 Z " fill="#484B4F" transform="translate(428,503)"/>
<path d="M0 0 C2.08954032 4.17908064 2.16552619 4.80410573 1 9 C0.34 9 -0.32 9 -1 9 C-0.67 6.03 -0.34 3.06 0 0 Z " fill="#E7E6EA" transform="translate(358,661)"/>
<path d="M0 0 C0.99 0.66 1.98 1.32 3 2 C1.02 3.32 -0.96 4.64 -3 6 C-3.66 5.67 -4.32 5.34 -5 5 C-3.35 3.35 -1.7 1.7 0 0 Z " fill="#2C2D32" transform="translate(429,597)"/>
<path d="M0 0 C0.33 0 0.66 0 1 0 C1 2.31 1 4.62 1 7 C0.34 7 -0.32 7 -1 7 C-1.33 7.66 -1.66 8.32 -2 9 C-1.125 1.125 -1.125 1.125 0 0 Z " fill="#C9CACD" transform="translate(364,639)"/>
<path d="M0 0 C0.33 0 0.66 0 1 0 C1.08096803 1.45742463 1.13917774 2.91612807 1.1875 4.375 C1.22230469 5.18710937 1.25710938 5.99921875 1.29296875 6.8359375 C1.19628906 7.55007813 1.09960938 8.26421875 1 9 C0.01 9.66 -0.98 10.32 -2 11 C-1.855625 10.29875 -1.71125 9.5975 -1.5625 8.875 C-0.98521625 5.92443859 -0.48304859 2.96729849 0 0 Z " fill="#D9DADC" transform="translate(367,626)"/>
<path d="M0 0 C0.99 0.66 1.98 1.32 3 2 C2.01 2.33 1.02 2.66 0 3 C-0.33 3.99 -0.66 4.98 -1 6 C-1.99 5.67 -2.98 5.34 -4 5 C-4 4.34 -4 3.68 -4 3 C-3.01 2.67 -2.02 2.34 -1 2 C-0.67 1.34 -0.34 0.68 0 0 Z " fill="#05060A" transform="translate(571,547)"/>
</svg>
