<?xml version="1.0" encoding="UTF-8"?>
<svg version="1.1" xmlns="http://www.w3.org/2000/svg" viewBox="40 410 1000 260" width="1000" height="260">
<path d="M0 0 C0 0.99 0 1.98 0 3 C-0.88751953 3.34611328 -0.88751953 3.34611328 -1.79296875 3.69921875 C-6.94873436 5.82712854 -10.07688166 7.97628888 -14 12 C-16.0053431 13.11981535 -18.03081378 14.08358738 -20.1328125 15.0078125 C-22.08593209 15.92139311 -22.08593209 15.92139311 -23.5546875 17.6171875 C-25 19 -25 19 -28 19 C-28 19.66 -28 20.32 -28 21 C-34.75 25 -34.75 25 -37 25 C-37 25.66 -37 26.32 -37 27 C-38.6796875 28.21875 -38.6796875 28.21875 -40.875 29.5 C-43.25362486 30.89818809 -45.03792084 32.03792084 -47 34 C-49.93940808 34.23413385 -52.7913869 34.34962915 -55.734375 34.37890625 C-56.60515686 34.39590073 -57.47593872 34.4128952 -58.37310791 34.43040466 C-61.16533084 34.4836376 -63.95754031 34.52383591 -66.75 34.5625 C-69.52809675 34.60655474 -72.30608316 34.65344786 -75.08404541 34.70530701 C-76.81357566 34.7370215 -78.54320146 34.76398474 -80.27288818 34.78553772 C-84.62785523 34.85953471 -88.7040834 35.21685126 -93 36 C-95.0499701 36.17083084 -97.10250548 36.31266592 -99.15625 36.4296875 C-100.91956665 36.5371228 -100.91956665 36.5371228 -102.71850586 36.64672852 C-103.96639893 36.72205811 -105.21429199 36.7973877 -106.5 36.875 C-115.38430195 37.43821751 -124.1425693 38.18507158 -132.9375 39.5625 C-143.21273755 41.15247117 -153.46179278 41.48514905 -163.83764648 41.70922852 C-169.66073879 41.83522277 -175.23629585 42.12380744 -181 43 C-182.7113609 43.08917462 -184.42386818 43.15754113 -186.13671875 43.2109375 C-187.04357422 43.23929687 -187.95042969 43.26765625 -188.88476562 43.296875 C-190.76476485 43.34927916 -192.64501028 43.39345168 -194.52539062 43.4296875 C-195.42837891 43.460625 -196.33136719 43.4915625 -197.26171875 43.5234375 C-198.07600342 43.54325684 -198.89028809 43.56307617 -199.72924805 43.58349609 C-202.47886158 44.08783334 -203.84701089 45.26921634 -206 47 C-206.66 47 -207.32 47 -208 47 C-208 47.66 -208 48.32 -208 49 C-210.69538681 50.81675478 -213.49150633 52.41662787 -216.30078125 54.05078125 C-219.19238697 56.13893068 -220.26999396 57.93883657 -222 61 C-223.72290408 62.05288583 -225.45143882 63.10231855 -227.2421875 64.03515625 C-229.20679618 65.04797656 -229.20679618 65.04797656 -231.5 67 C-233.89361983 68.91489587 -236.34584811 70.31770039 -239.02734375 71.78515625 C-242.26208625 73.77724519 -245.14715797 76.20490051 -248.08203125 78.609375 C-250 80 -250 80 -252 80 C-250.84247326 72.53699866 -249.06613751 65.39848238 -246.90234375 58.1640625 C-246.12798106 55.44876476 -245.50425032 52.77597598 -245 50 C-244.34 50 -243.68 50 -243 50 C-242.97421875 49.36835938 -242.9484375 48.73671875 -242.921875 48.0859375 C-242.20967487 36.85259902 -240.59067173 26.22465828 -232 18.35546875 C-229.96484972 16.97617745 -228.40642737 16.4136047 -226 16 C-226 15.34 -226 14.68 -226 14 C-223.44724868 12.6854095 -220.88531703 11.39928298 -218.3125 10.125 C-217.61060547 9.76019531 -216.90871094 9.39539063 -216.18554688 9.01953125 C-205.50299443 3.79695006 -193.67491052 3.69573078 -181.9921875 3.5859375 C-180.64564553 3.56701365 -179.29911332 3.54738481 -177.95259094 3.52711487 C-174.34224374 3.47540463 -170.73186039 3.43570444 -167.12133408 3.39890671 C-164.86418139 3.37488486 -162.60710162 3.34726463 -160.3500061 3.31838989 C-126.90092966 2.89083066 -93.45113039 2.89174233 -60 3 C-60 2.34 -60 1.68 -60 1 C-39.98757811 0.26315407 -20.02811316 -0.15409888 0 0 Z " fill="#FAFAFB" transform="translate(320,432)"/>
<path d="M0 0 C-1 3 -1 3 -2.96875 4.17578125 C-3.8040625 4.55089844 -4.639375 4.92601562 -5.5 5.3125 C-14.47951965 9.47367353 -14.47951965 9.47367353 -21.5546875 16.13671875 C-23 18 -23 18 -26.1875 18.75 C-27.115625 18.8325 -28.04375 18.915 -29 19 C-29 19.66 -29 20.32 -29 21 C-31.388562 22.60348896 -33.77709386 24.09898918 -36.25 25.5625 C-37.6131131 26.37002517 -38.97238303 27.18406606 -40.328125 28.00390625 C-41.06788574 28.45064697 -41.80764648 28.8973877 -42.56982422 29.35766602 C-45.11637119 31.01184579 -45.11637119 31.01184579 -47.68408203 33.29663086 C-55.76385226 40.12765989 -61.93328944 41.34971114 -72.375 41.4375 C-75.00846409 41.50485284 -77.64054212 41.59476999 -80.2734375 41.68359375 C-81.42247559 41.69962646 -82.57151367 41.71565918 -83.75537109 41.73217773 C-87.13697208 42.01130612 -89.79701799 42.92209357 -93 44 C-96.09619141 44.28710938 -96.09619141 44.28710938 -99.3515625 44.34375 C-100.53234375 44.37339844 -101.713125 44.40304687 -102.9296875 44.43359375 C-105.40103915 44.47800493 -107.87239334 44.52227488 -110.34375 44.56640625 C-111.52195312 44.59605469 -112.70015625 44.62570312 -113.9140625 44.65625 C-114.9860791 44.67494141 -116.0580957 44.69363281 -117.16259766 44.71289062 C-119.98291414 44.99827113 -121.63378876 45.47794696 -124 47 C-124.474375 47.639375 -124.94875 48.27875 -125.4375 48.9375 C-127 51 -127 51 -129.25 52.25 C-131.85241158 53.90608009 -133.19628382 55.25785646 -135.1484375 57.5859375 C-139.00955915 62.07843754 -143.14962475 66.22744013 -147.375 70.375 C-148.80175991 71.77632747 -150.22635507 73.1798635 -151.6484375 74.5859375 C-152.26895996 75.1948584 -152.88948242 75.8037793 -153.52880859 76.43115234 C-155.09461962 77.95123461 -155.09461962 77.95123461 -156 80 C-156.66 80 -157.32 80 -158 80 C-158.24081299 80.56750977 -158.48162598 81.13501953 -158.72973633 81.71972656 C-160.25625408 84.46000636 -162.08200967 86.29039291 -164.32421875 88.484375 C-165.18853516 89.33773437 -166.05285156 90.19109375 -166.94335938 91.0703125 C-167.84892578 91.95460938 -168.75449219 92.83890625 -169.6875 93.75 C-175.20857311 99.16265931 -180.64060399 104.52078833 -185.53833008 110.51269531 C-187 112 -187 112 -190 113 C-191.20882096 115.00016466 -191.20882096 115.00016466 -192 117 C-192.66 117 -193.32 117 -194 117 C-193.85304687 116.32710937 -193.70609375 115.65421875 -193.5546875 114.9609375 C-192.91143271 111.52722529 -192.52621783 108.09518226 -192.125 104.625 C-191.46115088 99.2363362 -190.34146682 94.88653944 -188 90 C-187.5945897 87.67810464 -187.23927006 85.34484656 -187 83 C-186.34 83 -185.68 83 -185 83 C-184.93941406 82.39671875 -184.87882812 81.7934375 -184.81640625 81.171875 C-184.73261719 80.37265625 -184.64882812 79.5734375 -184.5625 78.75 C-184.48128906 77.96109375 -184.40007812 77.1721875 -184.31640625 76.359375 C-184.02365007 74.17635361 -183.57935581 72.1226818 -183 70 C-182.34 70 -181.68 70 -181 70 C-181.061875 68.9790625 -181.061875 68.9790625 -181.125 67.9375 C-180.97340826 64.37509412 -180.00987715 61.42236146 -179 58 C-178.55777683 55.51249467 -178.13833881 53.0250537 -177.7578125 50.52734375 C-173.59922662 36.65824547 -155.0666994 21.9693647 -143 15 C-140.69855891 13.92863949 -138.3659787 12.92010283 -136 12 C-134.948125 11.505 -133.89625 11.01 -132.8125 10.5 C-127.75838222 8.32248894 -122.35071894 7.2101081 -117 6 C-116.30729004 5.82742676 -115.61458008 5.65485352 -114.90087891 5.47705078 C-110.84077235 4.80936452 -106.82737859 4.78396018 -102.71875 4.71875 C-101.82764526 4.70034058 -100.93654053 4.68193115 -100.01843262 4.66296387 C-96.21894843 4.58460855 -92.41929403 4.51667477 -88.61962891 4.44775391 C-85.84008547 4.39584878 -83.06068409 4.33867061 -80.28125 4.28125 C-78.99825012 4.26088684 -78.99825012 4.26088684 -77.68933105 4.2401123 C-73.65852373 4.15633482 -69.94522699 3.90563258 -66 3 C-63.73004581 2.93347145 -61.45831305 2.91456249 -59.1875 2.9375 C-58.02605469 2.94652344 -56.86460937 2.95554687 -55.66796875 2.96484375 C-54.78753906 2.97644531 -53.90710938 2.98804688 -53 3 C-53 2.34 -53 1.68 -53 1 C-35.33123111 0.4019214 -17.68173704 -0.19336043 0 0 Z " fill="#F9F9F9" transform="translate(236,495)"/>
<path d="M0 0 C1.64355469 0.42345703 1.64355469 0.42345703 3.3203125 0.85546875 C13.08245392 3.81129115 17.95561937 9.47673618 23 18 C25.62792934 23.62197886 25.22693095 29.29834709 25.125 35.375 C25.11597656 36.39722656 25.10695313 37.41945313 25.09765625 38.47265625 C25.0742043 40.98201522 25.04138355 43.49088336 25 46 C24.34 46 23.68 46 23 46 C22.814375 47.670625 22.814375 47.670625 22.625 49.375 C22 53 22 53 20 55 C19.731875 55.763125 19.46375 56.52625 19.1875 57.3125 C17.43983276 61.26774691 15.07702582 63.98330459 11.140625 65.91015625 C9.11205045 66.69249411 7.08040156 67.36909127 5 68 C3.865625 68.350625 2.73125 68.70125 1.5625 69.0625 C0.386875 69.371875 -0.78875 69.68125 -2 70 C-2.92159912 70.25861816 -2.92159912 70.25861816 -3.86181641 70.52246094 C-10.56490967 72.23531418 -17.04951953 72.26284348 -23.9375 72.1875 C-25.61102539 72.1865332 -25.61102539 72.1865332 -27.31835938 72.18554688 C-45.93248934 72.08740559 -45.93248934 72.08740559 -53.2578125 67.96875 C-55.10090471 66.87888838 -55.10090471 66.87888838 -57.6875 66.0625 C-60.81362933 64.62617031 -62.67604286 62.50742744 -65 60 C-65.598125 59.443125 -66.19625 58.88625 -66.8125 58.3125 C-68 57 -68 57 -68 55 C-68.66 55 -69.32 55 -70 55 C-70.33 52.03 -70.66 49.06 -71 46 C-71.66 46 -72.32 46 -73 46 C-73.02948491 42.85418698 -73.04695916 39.70841037 -73.0625 36.5625 C-73.07506836 35.24475586 -73.07506836 35.24475586 -73.08789062 33.90039062 C-73.12857018 22.87623088 -72.79884603 16.28210785 -65 8 C-58.43821158 1.76630101 -50.83376249 0.38686871 -42.20703125 -1.3515625 C-40.4935542 -1.69801462 -38.78079523 -2.06077465 -37.09619141 -2.52783203 C-25.50236511 -5.13934613 -11.14413812 -3.59154584 0 0 Z " fill="#F4F4F5" transform="translate(880,477)"/>
<path d="M0 0 C1.15951172 -0.020625 2.31902344 -0.04125 3.51367188 -0.0625 C11.08221779 -0.09653506 17.49967491 0.93782715 24.6875 3.25 C25.945625 3.559375 27.20375 3.86875 28.5 4.1875 C35.95480859 6.6724362 40.70102165 11.62340011 44.6875 18.25 C45.73478369 21.30419295 46.22791143 24.03288001 46.6875 27.25 C47.3475 27.25 48.0075 27.25 48.6875 27.25 C48.6875 33.52 48.6875 39.79 48.6875 46.25 C48.0275 46.25 47.3675 46.25 46.6875 46.25 C46.790625 47.466875 46.89375 48.68375 47 49.9375 C46.97676736 53.25395955 46.86682195 54.01861684 44.75 56.75 C43.739375 57.575 42.72875 58.4 41.6875 59.25 C40.635625 60.22839844 40.635625 60.22839844 39.5625 61.2265625 C33.27134334 67.0713871 28.42298311 70.37645169 19.6875 71.25 C19.6875 71.91 19.6875 72.57 19.6875 73.25 C9.71192071 74.76436505 -0.30863137 74.41194072 -10.37304688 74.28271484 C-12.80696683 74.25562637 -15.23798262 74.25831788 -17.671875 74.26953125 C-27.2826304 74.04528029 -33.38674422 70.78059254 -40.40625 64.32421875 C-46.85203744 57.50971042 -49.79763991 50.41039112 -49.71289062 41.02929688 C-49.68388672 40.09150391 -49.65488281 39.15371094 -49.625 38.1875 C-49.61533203 37.24583984 -49.60566406 36.30417969 -49.59570312 35.33398438 C-49.34516221 19.68062394 -49.34516221 19.68062394 -44.3125 13.25 C-43.61125 12.21875 -42.91 11.1875 -42.1875 10.125 C-37.34680373 4.43269976 -29.40624624 3.00465386 -22.3125 2.25 C-21.9825 1.92 -21.6525 1.59 -21.3125 1.25 C-14.23318938 0.05156773 -7.16604774 0.03155112 0 0 Z " fill="#F7F7F7" transform="translate(616.3125,474.75)"/>
<path d="M0 0 C7.48532285 -0.06998645 14.97061112 -0.1230553 22.4561882 -0.15543652 C25.93331334 -0.17099005 29.41021211 -0.19203537 32.88720703 -0.22631836 C36.89878317 -0.26561778 40.91012731 -0.27979421 44.921875 -0.29296875 C46.15049255 -0.30845261 47.37911011 -0.32393646 48.6449585 -0.33988953 C61.82054693 -0.34241893 73.93737561 2.12779744 83.8125 11.3125 C91.2344016 19.25100728 92.18895042 27.72081656 92.1015625 38.265625 C91.96668095 41.89705122 91.54219596 45.40795177 91 49 C90.34 49 89.68 49 89 49 C88.89429688 49.57363281 88.78859375 50.14726563 88.6796875 50.73828125 C87.89564352 53.3472552 86.76200132 55.017048 85.125 57.1875 C84.61195313 57.88230469 84.09890625 58.57710937 83.5703125 59.29296875 C82 61 82 61 79 62 C79 62.66 79 63.32 79 64 C77.68 64.33 76.36 64.66 75 65 C75 65.99 75 66.98 75 68 C60.07916684 71.80959733 45.83767484 72.54210817 30.47485352 72.35668945 C26.75197999 72.31176977 23.02975434 72.29510737 19.30664062 72.28320312 C16.94009469 72.26980979 14.57355676 72.25489547 12.20703125 72.23828125 C11.09374954 72.23089432 9.98046783 72.22350739 8.83345032 72.21589661 C7.30871346 72.19664375 7.30871346 72.19664375 5.75317383 72.17700195 C4.40803459 72.16223564 4.40803459 72.16223564 3.03572083 72.14717102 C1 72 1 72 0 71 C-0.09432985 68.79132169 -0.11742431 66.57958479 -0.11352539 64.36889648 C-0.11367142 63.67624695 -0.11381744 62.98359741 -0.1139679 62.2699585 C-0.11326874 59.97030554 -0.10547628 57.67073263 -0.09765625 55.37109375 C-0.09579208 53.78068588 -0.09436817 52.19027743 -0.09336853 50.59986877 C-0.08954329 46.4060407 -0.07971295 42.21224705 -0.06866455 38.01843262 C-0.05845057 33.74211086 -0.05387094 29.46578356 -0.04882812 25.18945312 C-0.03809069 16.79295292 -0.02101419 8.39648074 0 0 Z " fill="#F8F8F8" transform="translate(692,476)"/>
<path d="M0 0 C20 0 20 0 25.5 4.1875 C27.46484375 6.69140625 27.46484375 6.69140625 29 9 C32.09486773 12.93892257 35.28384111 16.11604179 39.09765625 19.3515625 C41 21 41 21 42.55859375 22.6484375 C44.07204246 24.25636164 44.07204246 24.25636164 47 25 C47 25.66 47 26.32 47 27 C47.59554687 27.25652344 48.19109375 27.51304687 48.8046875 27.77734375 C51.21239436 29.11829081 52.40605636 30.42461783 54.125 32.5625 C57.73794651 36.86812471 61.79333328 40.46851461 66.05859375 44.1171875 C66.69925781 44.73851562 67.33992187 45.35984375 68 46 C68 46.66 68 47.32 68 48 C68.99 48 69.98 48 71 48 C71 32.16 71 16.32 71 0 C76.94 0 82.88 0 89 0 C89 23.76 89 47.52 89 72 C71 72 71 72 66.26953125 69.2109375 C64.49072266 67.37768555 64.49072266 67.37768555 62.8125 65.375 C61.50515207 63.99231058 60.19652595 62.61082875 58.88671875 61.23046875 C58.24653809 60.5245459 57.60635742 59.81862305 56.94677734 59.09130859 C53.84955411 55.76414353 50.48565589 52.74414919 47.125 49.6875 C41.92451745 44.87826997 36.91584079 39.94371399 32.05078125 34.79296875 C30.17272888 32.87438139 30.17272888 32.87438139 27.92578125 32.48828125 C25.17268806 31.79023531 24.44786525 30.30577105 22.875 28 C20.89926624 24.97716106 20.89926624 24.97716106 18 23 C18 39.17 18 55.34 18 72 C12.06 72 6.12 72 0 72 C0 48.24 0 24.48 0 0 Z " fill="#F3F4F4" transform="translate(933,476)"/>
<path d="M0 0 C26.4 0 52.8 0 80 0 C80 4.62 80 9.24 80 14 C60.2 14 40.4 14 20 14 C20 18.62 20 23.24 20 28 C21.50941162 27.99476318 23.01882324 27.98952637 24.57397461 27.98413086 C30.1517681 27.96608795 35.729559 27.9545706 41.30737305 27.94506836 C43.72567172 27.94002651 46.14396733 27.93319322 48.56225586 27.92456055 C52.02979283 27.91248843 55.49728966 27.90677037 58.96484375 27.90234375 C60.05337143 27.89718246 61.14189911 27.89202118 62.26341248 27.88670349 C63.76485558 27.88659019 63.76485558 27.88659019 65.29663086 27.88647461 C66.62566689 27.88314369 66.62566689 27.88314369 67.98155212 27.87974548 C70 28 70 28 71 29 C71 33.62 71 38.24 71 43 C53.84 43 36.68 43 19 43 C19 52.57 19 62.14 19 72 C16.050625 72.020625 13.10125 72.04125 10.0625 72.0625 C8.66656616 72.07615601 8.66656616 72.07615601 7.24243164 72.09008789 C6.14983032 72.09383423 6.14983032 72.09383423 5.03515625 72.09765625 C4.2862915 72.10289307 3.53742676 72.10812988 2.76586914 72.11352539 C1 72 1 72 0 71 C-0.09432985 68.79132169 -0.11742431 66.57958479 -0.11352539 64.36889648 C-0.11364593 63.66501077 -0.11376646 62.96112505 -0.11389065 62.23590946 C-0.11314167 59.94760589 -0.10551417 57.65938283 -0.09765625 55.37109375 C-0.09618678 53.96228067 -0.0951661 52.55346705 -0.09460449 51.14465332 C-0.08935216 45.90892724 -0.07539107 40.67321284 -0.0625 35.4375 C-0.041875 23.743125 -0.02125 12.04875 0 0 Z " fill="#FCFDFD" transform="translate(368,476)"/>
<path d="M0 0 C0 0.66 0 1.32 0 2 C0.5775 2.2475 1.155 2.495 1.75 2.75 C4.34232905 4.19018281 6.00501162 5.81194823 8 8 C8.52464844 8.54527344 9.04929687 9.09054687 9.58984375 9.65234375 C11.55220713 12.91932544 11.53271839 15.98085108 11.5 19.6875 C11.49645508 20.39922363 11.49291016 21.11094727 11.48925781 21.84423828 C11.30544162 27.69305639 10.08553004 32.59192811 6 37 C4.67075016 37.67477187 3.33758613 38.34190763 2 39 C1.34 39.99 0.68 40.98 0 42 C-6.51971869 45.02351164 -13.41715329 45.52003248 -20.5 45.4375 C-21.42127686 45.42920166 -22.34255371 45.42090332 -23.29174805 45.41235352 C-33.47158321 45.15851256 -39.88234384 42.52870968 -47.50390625 35.78125 C-52.0094292 30.41697202 -50.36193401 20.62668271 -50 14 C-48.95214308 8.39767834 -46.45852174 4.56681739 -42 1 C-32.01924474 -5.3397072 -9.71290859 -8.09409049 0 0 Z " fill="#121318" transform="translate(876,491)"/>
<path d="M0 0 C6.27717391 5.08152174 6.27717391 5.08152174 7.625 9.125 C8.13417969 9.56328125 8.64335938 10.0015625 9.16796875 10.453125 C11.81151507 13.48647037 10.95174104 17.25738866 10.86328125 21.09375 C10.57777455 24.72576968 9.86623583 27.71160146 8.625 31.125 C7.965 31.125 7.305 31.125 6.625 31.125 C6.3775 32.2078125 6.3775 32.2078125 6.125 33.3125 C3.98258482 37.32952846 0.7063521 39.22575695 -3.375 41.125 C-4.365 41.125 -5.355 41.125 -6.375 41.125 C-6.375 41.785 -6.375 42.445 -6.375 43.125 C-10.74640621 44.5821354 -14.98342269 44.3093615 -19.5625 44.3125 C-20.48353516 44.32474609 -21.40457031 44.33699219 -22.35351562 44.34960938 C-30.70959587 44.36740089 -37.6178334 43.50001889 -44.375 38.125 C-48.375 33.91447368 -48.375 33.91447368 -48.375 29.125 C-49.035 29.125 -49.695 29.125 -50.375 29.125 C-50.45632642 26.08278935 -50.51565374 23.0427762 -50.5625 20 C-50.58763672 19.1440625 -50.61277344 18.288125 -50.63867188 17.40625 C-50.71125589 11.11563519 -49.81714052 6.80347669 -45.4375 2 C-32.92916689 -5.65816313 -13.13506976 -7.29726098 0 0 Z " fill="#101217" transform="translate(635.375,491.875)"/>
<path d="M0 0 C6.06375 -0.103125 12.1275 -0.20625 18.375 -0.3125 C21.21424072 -0.38078003 21.21424072 -0.38078003 24.11083984 -0.45043945 C32.9504707 -0.5741601 40.65227456 -0.64932353 48 5 C50.5 7.625 50.5 7.625 52 10 C52.66 10.99 53.32 11.98 54 13 C54.22705078 14.99291992 54.22705078 14.99291992 54.1953125 17.23046875 C54.18886719 18.03291016 54.18242188 18.83535156 54.17578125 19.66210938 C54.15902344 20.49548828 54.14226563 21.32886719 54.125 22.1875 C54.11597656 23.03248047 54.10695313 23.87746094 54.09765625 24.74804688 C54.07410703 26.83215243 54.03823647 28.91611217 54 31 C53.01 31 52.02 31 51 31 C51 31.66 51 32.32 51 33 C50.34 33 49.68 33 49 33 C48.9071875 33.86625 48.9071875 33.86625 48.8125 34.75 C47.28337432 38.98450188 43.71184132 40.63719911 39.85522461 42.6027832 C35.69247172 44.33544434 31.9000249 44.38525612 27.44140625 44.29296875 C26.7407605 44.28994751 26.04011475 44.28692627 25.3182373 44.28381348 C22.73283894 44.26826832 20.14765266 44.22638569 17.5625 44.1875 C11.766875 44.125625 5.97125 44.06375 0 44 C0 29.48 0 14.96 0 0 Z " fill="#131519" transform="translate(711,490)"/>
<path d="M0 0 C5.94 0 11.88 0 18 0 C18 19.14 18 38.28 18 58 C36.48 58 54.96 58 74 58 C74 62.62 74 67.24 74 72 C49.58 72 25.16 72 0 72 C0 48.24 0 24.48 0 0 Z " fill="#F3F3F4" transform="translate(474,476)"/>
<path d="M0 0 C26.4 0 52.8 0 80 0 C80 4.62 80 9.24 80 14 C60.2 14 40.4 14 20 14 C20 18.62 20 23.24 20 28 C21.50941162 27.99476318 23.01882324 27.98952637 24.57397461 27.98413086 C30.1517681 27.96608795 35.729559 27.9545706 41.30737305 27.94506836 C43.72567172 27.94002651 46.14396733 27.93319322 48.56225586 27.92456055 C52.02979283 27.91248843 55.49728966 27.90677037 58.96484375 27.90234375 C60.05337143 27.89718246 61.14189911 27.89202118 62.26341248 27.88670349 C63.76485558 27.88659019 63.76485558 27.88659019 65.29663086 27.88647461 C66.62566689 27.88314369 66.62566689 27.88314369 67.98155212 27.87974548 C70 28 70 28 71 29 C71 33.62 71 38.24 71 43 C53.84 43 36.68 43 19 43 C19 52.57 19 62.14 19 72 C16.050625 72.020625 13.10125 72.04125 10.0625 72.0625 C8.66656616 72.07615601 8.66656616 72.07615601 7.24243164 72.09008789 C6.14983032 72.09383423 6.14983032 72.09383423 5.03515625 72.09765625 C4.2862915 72.10289307 3.53742676 72.10812988 2.76586914 72.11352539 C1 72 1 72 0 71 C-0.09432985 68.79132169 -0.11742431 66.57958479 -0.11352539 64.36889648 C-0.11364593 63.66501077 -0.11376646 62.96112505 -0.11389065 62.23590946 C-0.11314167 59.94760589 -0.10551417 57.65938283 -0.09765625 55.37109375 C-0.09618678 53.96228067 -0.0951661 52.55346705 -0.09460449 51.14465332 C-0.08935216 45.90892724 -0.07539107 40.67321284 -0.0625 35.4375 C-0.041875 23.743125 -0.02125 12.04875 0 0 Z M1 1 C1 24.1 1 47.2 1 71 C6.61 71 12.22 71 18 71 C18.33 61.43 18.66 51.86 19 42 C35.5 41.67 52 41.34 69 41 C69 37.37 69 33.74 69 30 C44.25 29.505 44.25 29.505 19 29 C19 23.72 19 18.44 19 13 C38.8 12.67 58.6 12.34 79 12 C79 8.37 79 4.74 79 1 C53.26 1 27.52 1 1 1 Z " fill="#A2A2A5" transform="translate(368,476)"/>
<path d="M0 0 C7.60628324 -0.02319967 15.21256281 -0.04095394 22.81887341 -0.05181217 C26.35102274 -0.05702433 29.88314782 -0.06409164 33.4152832 -0.07543945 C37.47868072 -0.08841195 41.54205286 -0.093242 45.60546875 -0.09765625 C46.8702153 -0.10281754 48.13496185 -0.10797882 49.43803406 -0.11329651 C50.61888077 -0.11337204 51.79972748 -0.11344757 53.01635742 -0.11352539 C54.05338303 -0.115746 55.09040863 -0.11796661 56.15885925 -0.12025452 C58.87950872 -0.00509993 61.35156042 0.38597624 64 1 C64 1.33 64 1.66 64 2 C43.87 2 23.74 2 3 2 C3.020625 8.001875 3.04125 14.00375 3.0625 20.1875 C3.0910379 37.15084395 2.7191677 54.05224979 2 71 C9.2449995 70.8827136 16.48984013 70.75787765 23.73461914 70.62768555 C26.20138569 70.58426057 28.66818378 70.54259128 31.13500977 70.50268555 C34.67213466 70.44516555 38.20909966 70.38141925 41.74609375 70.31640625 C43.41169594 70.29133751 43.41169594 70.29133751 45.11094666 70.26576233 C46.13192947 70.24581711 47.15291229 70.22587189 48.20483398 70.20532227 C49.56051735 70.18200584 49.56051735 70.18200584 50.94358826 70.15821838 C52.99194101 70.22498543 52.99194101 70.22498543 54 69 C55.55587743 68.70356264 57.12235187 68.46219106 58.69140625 68.24609375 C59.63564453 68.11396484 60.57988281 67.98183594 61.55273438 67.84570312 C62.54595703 67.71099609 63.53917969 67.57628906 64.5625 67.4375 C65.55958984 67.29892578 66.55667969 67.16035156 67.58398438 67.01757812 C70.05549716 66.67464094 72.52748545 66.33562546 75 66 C75 66.66 75 67.32 75 68 C60.07916684 71.80959733 45.83767484 72.54210817 30.47485352 72.35668945 C26.75197999 72.31176977 23.02975434 72.29510737 19.30664062 72.28320312 C16.94009469 72.26980979 14.57355676 72.25489547 12.20703125 72.23828125 C11.09374954 72.23089432 9.98046783 72.22350739 8.83345032 72.21589661 C7.30871346 72.19664375 7.30871346 72.19664375 5.75317383 72.17700195 C4.40803459 72.16223564 4.40803459 72.16223564 3.03572083 72.14717102 C1 72 1 72 0 71 C-0.09432985 68.79132169 -0.11742431 66.57958479 -0.11352539 64.36889648 C-0.11367142 63.67624695 -0.11381744 62.98359741 -0.1139679 62.2699585 C-0.11326874 59.97030554 -0.10547628 57.67073263 -0.09765625 55.37109375 C-0.09579208 53.78068588 -0.09436817 52.19027743 -0.09336853 50.59986877 C-0.08954329 46.4060407 -0.07971295 42.21224705 -0.06866455 38.01843262 C-0.05845057 33.74211086 -0.05387094 29.46578356 -0.04882812 25.18945312 C-0.03809069 16.79295292 -0.02101419 8.39648074 0 0 Z " fill="#C9CACB" transform="translate(692,476)"/>
<path d="M0 0 C45.54 0 91.08 0 138 0 C138 0.33 138 0.66 138 1 C136.96108282 1.01407851 136.96108282 1.01407851 135.90117741 1.02844143 C119.02395134 1.25744827 102.14679995 1.49129723 85.26971531 1.73049068 C77.10798227 1.84604832 68.9462327 1.95998596 60.78442383 2.07006836 C53.66799383 2.16605537 46.55161445 2.26512428 39.43527836 2.36784559 C35.66961717 2.42209497 31.90394889 2.47483383 28.13821602 2.5238781 C24.5882712 2.57016079 21.03840857 2.62058784 17.48856544 2.67408943 C15.57592343 2.70186686 13.66322043 2.72534354 11.7505188 2.74865723 C5.42964115 2.84812906 -0.73121024 3.17448241 -7 4 C-6.67 3.34 -6.34 2.68 -6 2 C-4.02 2 -2.04 2 0 2 C0 1.34 0 0.68 0 0 Z " fill="#65676A" transform="translate(122,434)"/>
<path d="M0 0 C0 0.99 0 1.98 0 3 C-1.32 3.33 -2.64 3.66 -4 4 C-4 3.34 -4 2.68 -4 2 C-8.1444526 2.11906926 -12.28870716 2.24336391 -16.43286133 2.37231445 C-17.84004557 2.41538658 -19.24727282 2.45707864 -20.65454102 2.49731445 C-22.68779408 2.5556957 -24.72083617 2.61918685 -26.75390625 2.68359375 C-27.97408447 2.72025146 -29.1942627 2.75690918 -30.45141602 2.79467773 C-33.95049161 2.93790322 -33.95049161 2.93790322 -37.17871094 3.5057373 C-41.39091318 4.05056247 -45.44968515 4.13309192 -49.68920898 4.11352539 C-50.52903824 4.11367142 -51.36886749 4.11381744 -52.23414612 4.1139679 C-54.98815567 4.11327564 -57.74209613 4.10551563 -60.49609375 4.09765625 C-62.41422997 4.09578963 -64.33236667 4.09436688 -66.25050354 4.09336853 C-71.28267753 4.0895626 -76.31482235 4.07974883 -81.34698486 4.06866455 C-86.48848069 4.05840898 -91.62998126 4.05386204 -96.77148438 4.04882812 C-106.84766902 4.03812475 -116.92383208 4.02107155 -127 4 C-127 3.67 -127 3.34 -127 3 C-104.89 3 -82.78 3 -60 3 C-60 2.34 -60 1.68 -60 1 C-39.98757811 0.26315407 -20.02811316 -0.15409888 0 0 Z " fill="#D2D2D5" transform="translate(320,432)"/>
<path d="M0 0 C14.52 0 29.04 0 44 0 C44 0.33 44 0.66 44 1 C33.11 1 22.22 1 11 1 C11 1.66 11 2.32 11 3 C-1.99965767 4.69621096 -14.83566074 5.36938491 -27.9375 5.5625 C-31.48838859 5.62116323 -35.03914013 5.68495528 -38.58984375 5.75390625 C-39.83911148 5.77778915 -39.83911148 5.77778915 -41.11361694 5.80215454 C-47.10580746 5.93510318 -53.04553825 6.28806278 -59 7 C-56.03610411 4.443263 -54.17331431 3.61888831 -50.26953125 3.5234375 C-49.38458984 3.4925 -48.49964844 3.4615625 -47.58789062 3.4296875 C-46.67201172 3.41164063 -45.75613281 3.39359375 -44.8125 3.375 C-42.98556439 3.32421652 -41.15872654 3.26973384 -39.33203125 3.2109375 C-38.52483643 3.19337402 -37.7176416 3.17581055 -36.88598633 3.15771484 C-34.98815901 3.20339948 -34.98815901 3.20339948 -34 2 C-31.47905924 1.91152257 -28.98569107 1.88472699 -26.46484375 1.90234375 C-25.33496788 1.90446617 -25.33496788 1.90446617 -24.18226624 1.90663147 C-21.7673044 1.91224624 -19.35243399 1.92480117 -16.9375 1.9375 C-15.30403779 1.9425131 -13.67057414 1.94707634 -12.03710938 1.95117188 C-8.02470415 1.96222046 -4.01236759 1.97949494 0 2 C0 1.34 0 0.68 0 0 Z " fill="#414346" transform="translate(172,495)"/>
<path d="M0 0 C1.25683594 0.00322266 2.51367188 0.00644531 3.80859375 0.00976562 C5.12730469 0.01814453 6.44601563 0.02652344 7.8046875 0.03515625 C9.14452961 0.04017136 10.4843735 0.04473424 11.82421875 0.04882812 C15.10941956 0.06064539 18.39453147 0.07712008 21.6796875 0.09765625 C21.6796875 0.42765625 21.6796875 0.75765625 21.6796875 1.09765625 C7.73062644 3.40316634 -6.03433781 4.50274832 -20.15087891 4.80639648 C-25.97635788 4.93297042 -31.5532978 5.22622774 -37.3203125 6.09765625 C-40.30106454 6.21181125 -43.27548272 6.19337843 -46.2578125 6.16015625 C-47.03705078 6.15564453 -47.81628906 6.15113281 -48.61914062 6.14648438 C-50.51956518 6.13482533 -52.41994956 6.11689502 -54.3203125 6.09765625 C-54.3203125 5.76765625 -54.3203125 5.43765625 -54.3203125 5.09765625 C-52.81404297 5.02417969 -52.81404297 5.02417969 -51.27734375 4.94921875 C-44.75366585 4.60244517 -38.33230907 4.19439805 -31.8828125 3.09765625 C-25.88777826 2.08091049 -19.94556253 1.69706699 -13.87915039 1.43945312 C-8.99352131 1.21699214 -4.93488741 -0.02222922 0 0 Z " fill="#9A9A9C" transform="translate(176.3203125,468.90234375)"/>
<path d="M0 0 C0.66209473 -0.00095673 1.32418945 -0.00191345 2.00634766 -0.00289917 C3.40852961 -0.00358076 4.8107147 -0.00172792 6.21289062 0.00244141 C8.36595713 0.00779004 10.51881502 0.0024958 12.671875 -0.00390625 C14.03125046 -0.00324546 15.3906258 -0.00196429 16.75 0 C18.61785156 0.00169189 18.61785156 0.00169189 20.5234375 0.00341797 C23.375 0.1328125 23.375 0.1328125 24.375 1.1328125 C26.70317964 1.50041981 29.0368385 1.83522831 31.375 2.1328125 C31.375 2.7928125 31.375 3.4528125 31.375 4.1328125 C33.85 4.6278125 33.85 4.6278125 36.375 5.1328125 C33.60699765 6.51681368 32.51294254 5.66803789 29.60546875 4.7109375 C22.91285044 2.79470764 16.60693615 2.75973192 9.6875 2.8828125 C7.93083008 2.89054687 7.93083008 2.89054687 6.13867188 2.8984375 C-3.79421097 2.27571789 -3.79421097 2.27571789 -12.625 5.1328125 C-14.13969448 5.36474115 -15.66254562 5.54496488 -17.1875 5.6953125 C-18.42693359 5.82099609 -18.42693359 5.82099609 -19.69140625 5.94921875 C-20.64853516 6.04009766 -20.64853516 6.04009766 -21.625 6.1328125 C-21.295 5.4728125 -20.965 4.8128125 -20.625 4.1328125 C-18.975 4.1328125 -17.325 4.1328125 -15.625 4.1328125 C-15.625 3.4728125 -15.625 2.8128125 -15.625 2.1328125 C-13.57421875 1.90494792 -11.5234375 1.67708333 -9.47265625 1.44921875 C-1.01530477 0.00091966 -1.01530477 0.00091966 0 0 Z " fill="#525355" transform="translate(606.625,472.8671875)"/>
<path d="M0 0 C2.31 0.33 4.62 0.66 7 1 C7 1.66 7 2.32 7 3 C12.27375575 4.06003245 17.41656517 4.21555735 22.7734375 4.31640625 C23.6971817 4.33718735 24.6209259 4.35796844 25.57266235 4.37937927 C28.50670344 4.44446119 31.44082962 4.50356643 34.375 4.5625 C36.37110235 4.6057246 38.36719627 4.64934012 40.36328125 4.69335938 C45.24210156 4.8000999 50.12100699 4.90148248 55 5 C55 5.33 55 5.66 55 6 C44.07541832 7.65843047 33.01909146 7.15489049 22 7 C20.81494873 6.98912354 20.81494873 6.98912354 19.60595703 6.97802734 C12.00985034 6.87235173 5.7974795 6.32936004 0 1 C0 0.67 0 0.34 0 0 Z " fill="#C9CACD" transform="translate(581,542)"/>
<path d="M0 0 C0 0.99 0 1.98 0 3 C-1.32 3.33 -2.64 3.66 -4 4 C-4 3.34 -4 2.68 -4 2 C-22.48 2 -40.96 2 -60 2 C-60 1.67 -60 1.34 -60 1 C-39.98757811 0.26315407 -20.02811316 -0.15409888 0 0 Z " fill="#A8A9AD" transform="translate(320,432)"/>
<path d="M0 0 C-0.66 0.33 -1.32 0.66 -2 1 C-2.75837158 0.69537842 -3.51674316 0.39075684 -4.2980957 0.0769043 C-7.17393576 -1.06932598 -9.15417438 -1.24478754 -12.23046875 -1.23046875 C-13.68163086 -1.22756836 -13.68163086 -1.22756836 -15.16210938 -1.22460938 C-16.65967773 -1.20624023 -16.65967773 -1.20624023 -18.1875 -1.1875 C-19.7024707 -1.1865332 -19.7024707 -1.1865332 -21.24804688 -1.18554688 C-26.28753683 -1.3641625 -26.28753683 -1.3641625 -31 0 C-33.3329866 0.04022391 -35.66706666 0.04320247 -38 0 C-38 0.66 -38 1.32 -38 2 C-41 4 -41 4 -44 4 C-44.66 5.98 -45.32 7.96 -46 10 C-46.66 10 -47.32 10 -48 10 C-46.13681318 4.41043955 -43.35436409 1.59487886 -38.25 -1.1875 C-28.46297637 -5.78361607 -8.89097186 -6.81641176 0 0 Z " fill="#9B9C9F" transform="translate(876,491)"/>
<path d="M0 0 C0 0.66 0 1.32 0 2 C-16.16594567 6.14068548 -31.62914194 6.48440806 -48.25 6.25 C-50.76040223 6.22988044 -53.27082024 6.21163944 -55.78125 6.1953125 C-61.85451859 6.15180551 -67.92718239 6.08533641 -74 6 C-74 5.67 -74 5.34 -74 5 C-73.02614098 4.9845388 -73.02614098 4.9845388 -72.03260803 4.96876526 C-65.30100948 4.86093864 -58.5695513 4.74632219 -51.83813477 4.62768555 C-49.32286504 4.58425994 -46.80756437 4.54259071 -44.29223633 4.50268555 C-40.68561456 4.44516707 -37.07914969 4.38142033 -33.47265625 4.31640625 C-32.34038101 4.29969376 -31.20810577 4.28298126 -30.04151917 4.26576233 C-29.00051559 4.24581711 -27.95951202 4.22587189 -26.88696289 4.20532227 C-25.96540909 4.18977798 -25.04385529 4.1742337 -24.09437561 4.15821838 C-22.01249529 4.22977244 -22.01249529 4.22977244 -21 3 C-19.61409545 2.70480733 -18.21671891 2.46287613 -16.81640625 2.24609375 C-15.97142578 2.11396484 -15.12644531 1.98183594 -14.25585938 1.84570312 C-13.36705078 1.71099609 -12.47824219 1.57628906 -11.5625 1.4375 C-10.67755859 1.29892578 -9.79261719 1.16035156 -8.88085938 1.01757812 C-2.29918411 0 -2.29918411 0 0 0 Z " fill="#A7A9AB" transform="translate(767,542)"/>
<path d="M0 0 C0 0.33 0 0.66 0 1 C-4.6855091 2.16930613 -9.27153978 2.20337242 -14.0703125 2.28125 C-14.94718719 2.29965942 -15.82406189 2.31806885 -16.72750854 2.33703613 C-19.52660643 2.39557789 -22.32576589 2.44841232 -25.125 2.5 C-41.09272128 2.71248928 -41.09272128 2.71248928 -57 4 C-53.6043375 0.8846325 -51.14569609 0.59285875 -46.6015625 0.48828125 C-44.68935913 0.43498657 -44.68935913 0.43498657 -42.73852539 0.38061523 C-41.36735849 0.3574183 -39.99618303 0.33472277 -38.625 0.3125 C-37.22971303 0.27970405 -35.83444882 0.24592522 -34.43920898 0.21118164 C-22.96086111 -0.05637136 -11.48076773 -0.10842278 0 0 Z " fill="#B7B8BA" transform="translate(170,498)"/>
<path d="M0 0 C-1 2 -1 2 -3.64038086 3.10839844 C-7.15752754 4.04180587 -10.12040882 4.25850797 -13.75390625 4.265625 C-15.02041016 4.26820313 -16.28691406 4.27078125 -17.59179688 4.2734375 C-19.55729492 4.26183594 -19.55729492 4.26183594 -21.5625 4.25 C-23.53379883 4.26160156 -23.53379883 4.26160156 -25.54492188 4.2734375 C-26.81013672 4.27085937 -28.07535156 4.26828125 -29.37890625 4.265625 C-30.5294751 4.26336914 -31.68004395 4.26111328 -32.86547852 4.25878906 C-35.97667272 4.00192592 -38.19227599 3.32352397 -41 2 C-41 1.67 -41 1.34 -41 1 C-39.5773584 1.00785522 -39.5773584 1.00785522 -38.12597656 1.01586914 C-34.59992869 1.03293345 -31.07392485 1.0454611 -27.54785156 1.05493164 C-26.02310493 1.05995365 -24.49836309 1.0667725 -22.97363281 1.07543945 C-20.77928481 1.08759849 -18.5850006 1.09324968 -16.390625 1.09765625 C-15.07094727 1.10289307 -13.75126953 1.10812988 -12.39160156 1.11352539 C-8.12122946 0.97058535 -4.29969787 -0.11943605 0 0 Z " fill="#404145" transform="translate(878,547)"/>
<path d="M0 0 C-0.33 0.99 -0.66 1.98 -1 3 C-3.0625 3.6875 -3.0625 3.6875 -5 4 C-5 3.34 -5 2.68 -5 2 C-20.84 2 -36.68 2 -53 2 C-53 1.67 -53 1.34 -53 1 C-35.33123111 0.4019214 -17.68173704 -0.19336043 0 0 Z " fill="#B6B7B9" transform="translate(236,495)"/>
<path d="M0 0 C0.87935211 0.00141495 1.75870422 0.0028299 2.66470337 0.00428772 C5.45619192 0.00985748 8.24759844 0.02240435 11.0390625 0.03515625 C12.93880092 0.04017516 14.8385406 0.04473738 16.73828125 0.04882812 C21.38023964 0.059817 26.02213719 0.07706068 30.6640625 0.09765625 C30.6640625 0.42765625 30.6640625 0.75765625 30.6640625 1.09765625 C19.1140625 1.09765625 7.5640625 1.09765625 -4.3359375 1.09765625 C-4.3359375 1.75765625 -4.3359375 2.41765625 -4.3359375 3.09765625 C-13.2459375 3.09765625 -22.1559375 3.09765625 -31.3359375 3.09765625 C-31.3359375 2.76765625 -31.3359375 2.43765625 -31.3359375 2.09765625 C-30.25054687 2.03707031 -29.16515625 1.97648437 -28.046875 1.9140625 C-26.60155264 1.82959561 -25.15624068 1.74495074 -23.7109375 1.66015625 C-22.99808594 1.62083984 -22.28523437 1.58152344 -21.55078125 1.54101562 C-20.49697266 1.47817383 -20.49697266 1.47817383 -19.421875 1.4140625 C-18.7829834 1.37740479 -18.1440918 1.34074707 -17.48583984 1.30297852 C-15.23799849 1.12250085 -15.23799849 1.12250085 -12.6640625 0.58398438 C-8.41798509 -0.03648116 -4.28446167 -0.02620114 0 0 Z " fill="#7A7B7E" transform="translate(242.3359375,465.90234375)"/>
<path d="M0 0 C1.43367789 0.04233077 2.86719443 0.0903537 4.30053711 0.14282227 C5.05378769 0.16643326 5.80703827 0.19004425 6.58311462 0.21437073 C8.99822015 0.2911835 11.41301906 0.37513123 13.82788086 0.45922852 C15.4613292 0.51243161 17.09479268 0.56517211 18.72827148 0.61743164 C22.74083687 0.74682227 26.7531413 0.88261399 30.76538086 1.02172852 C30.43538086 2.01172852 30.10538086 3.00172852 29.76538086 4.02172852 C29.76538086 3.36172852 29.76538086 2.70172852 29.76538086 2.02172852 C28.72087769 2.06716797 28.72087769 2.06716797 27.65527344 2.11352539 C9.33892989 2.88983142 -8.90320154 3.15289784 -27.23461914 3.02172852 C-27.23461914 2.69172852 -27.23461914 2.36172852 -27.23461914 2.02172852 C-26.54311768 1.99667236 -25.85161621 1.97161621 -25.13916016 1.94580078 C-22.02494048 1.8302069 -18.91105125 1.7073161 -15.79711914 1.58422852 C-14.16419922 1.52525391 -14.16419922 1.52525391 -12.49829102 1.46508789 C-11.46381836 1.42319336 -10.4293457 1.38129883 -9.36352539 1.33813477 C-8.40518799 1.30147705 -7.44685059 1.26481934 -6.45947266 1.22705078 C-3.29886972 0.93537218 -3.56724154 0.0239629 0 0 Z " fill="#2C2D31" transform="translate(290.234619140625,429.978271484375)"/>
<path d="M0 0 C0.93423645 3.01031744 1.04449911 3.86650268 0 7 C-0.66 7 -1.32 7 -2 7 C-2.1546875 8.6396875 -2.1546875 8.6396875 -2.3125 10.3125 C-2.86290232 14.81144068 -4.06172598 19.03383408 -5.30859375 23.3828125 C-6.10551486 26.19429646 -6.10551486 26.19429646 -6.5625 29.9375 C-6.96563789 32.75946525 -7.547317 34.57886166 -9 37 C-8.34 37.33 -7.68 37.66 -7 38 C-7.99 38 -8.98 38 -10 38 C-10.05447047 36.58376784 -10.09300508 35.16691809 -10.125 33.75 C-10.14820312 32.96109375 -10.17140625 32.1721875 -10.1953125 31.359375 C-9.98037627 28.76294538 -9.19758072 27.28503908 -8 25 C-7.77441027 23.00191953 -7.54976616 21.00369345 -7.33984375 19.00390625 C-6.83380191 16.02000437 -5.41190317 13.66089444 -4 11 C-3.16004407 8.66634886 -2.39641374 6.31769505 -1.6484375 3.953125 C-1 2 -1 2 0 0 Z " fill="#68696D" transform="translate(77,475)"/>
<path d="M0 0 C2.26171875 1.57421875 2.26171875 1.57421875 4 3 C2.35 3.33 0.7 3.66 -1 4 C-1.33 3.34 -1.66 2.68 -2 2 C-8.39126814 0.57473824 -14.92207452 0.88723262 -21.4375 0.9375 C-22.55060547 0.94201172 -23.66371094 0.94652344 -24.81054688 0.95117188 C-27.54042101 0.96288807 -30.27018174 0.97929301 -33 1 C-24.91974291 -4.38683806 -9.00555332 -3.32157489 0 0 Z " fill="#414246" transform="translate(632,490)"/>
<path d="M0 0 C2 1 2 1 3.0625 3.125 C6.087428 12.40144586 5.43793229 22.47369856 4 32 C3.34 32 2.68 32 2 32 C1.67 32.99 1.34 33.98 1 35 C0.95758277 32.66705225 0.95907063 30.33297433 1 28 C1.33 27.67 1.66 27.34 2 27 C2.25174572 23.94562625 2.18523241 20.8760158 2.1875 17.8125 C2.19974609 16.96107422 2.21199219 16.10964844 2.22460938 15.23242188 C2.23585311 10.38637255 1.79817645 6.57006899 0 2 C0 1.34 0 0.68 0 0 Z " fill="#999A9D" transform="translate(779,493)"/>
<path d="M0 0 C1.24546405 2.49092811 0.7767578 3.41080733 0 6 C-0.66 6 -1.32 6 -2 6 C-3.14986014 9.65947553 -3.13314948 13.11946653 -3.125 16.9375 C-3.12757813 18.14277344 -3.13015625 19.34804688 -3.1328125 20.58984375 C-3.01821801 23.53222592 -2.68262539 26.14489223 -2 29 C-1.34 29 -0.68 29 0 29 C0.33 30.65 0.66 32.3 1 34 C-1 32.25 -1 32.25 -3 30 C-3 28.68 -3 27.36 -3 26 C-3.66 26 -4.32 26 -5 26 C-5.08132642 22.95778935 -5.14065374 19.9177762 -5.1875 16.875 C-5.21263672 16.0190625 -5.23777344 15.163125 -5.26367188 14.28125 C-5.32355622 9.09127372 -4.95205194 5.47453877 -2 1 C-1.34 0.67 -0.68 0.34 0 0 Z " fill="#646569" transform="translate(590,495)"/>
<path d="M0 0 C0.33 0.99 0.66 1.98 1 3 C1.66 3 2.32 3 3 3 C3 9.27 3 15.54 3 22 C2.34 22 1.68 22 1 22 C1.061875 23.258125 1.12375 24.51625 1.1875 25.8125 C1.29296875 27.95703125 1.29296875 27.95703125 1 30 C0.01 30.99 -0.98 31.98 -2 33 C-1.34 27.72 -0.68 22.44 0 17 C0.66 17 1.32 17 2 17 C1.34 11.39 0.68 5.78 0 0 Z " fill="#85868A" transform="translate(662,499)"/>
<path d="M0 0 C0.66 0 1.32 0 2 0 C4.52996301 5.05992602 3.54197104 12.92418513 2 18.25 C1.67 19.1575 1.34 20.065 1 21 C0.67 21 0.34 21 0 21 C0 14.07 0 7.14 0 0 Z " fill="#4F5053" transform="translate(643,502)"/>
<path d="M0 0 C1.09957031 0.00451172 2.19914063 0.00902344 3.33203125 0.01367188 C6.01308003 0.02532861 8.69400932 0.04168983 11.375 0.0625 C11.375 0.3925 11.375 0.7225 11.375 1.0625 C10.75044922 1.08755615 10.12589844 1.1126123 9.48242188 1.13842773 C6.61312877 1.25550381 3.74407575 1.37771751 0.875 1.5 C-0.10726562 1.53931641 -1.08953125 1.57863281 -2.1015625 1.61914062 C-11.43758179 1.3145627 -11.43758179 1.3145627 -19.625 4.0625 C-21.13969448 4.29442865 -22.66254562 4.47465238 -24.1875 4.625 C-25.42693359 4.75068359 -25.42693359 4.75068359 -26.69140625 4.87890625 C-27.64853516 4.96978516 -27.64853516 4.96978516 -28.625 5.0625 C-28.295 4.4025 -27.965 3.7425 -27.625 3.0625 C-25.975 3.0625 -24.325 3.0625 -22.625 3.0625 C-22.625 2.4025 -22.625 1.7425 -22.625 1.0625 C-15.06121983 0.12311705 -7.61592495 -0.06015008 0 0 Z " fill="#AEAEB1" transform="translate(613.625,473.9375)"/>
<path d="M0 0 C1.55955444 3.11910889 0.62673502 5.63842127 0 9 C-1.0625 11.9375 -1.0625 11.9375 -2 14 C-1.38125 13.34 -0.7625 12.68 -0.125 12 C2 10 2 10 4 10 C4 13 4 13 2.3125 15.1875 C-0.3961577 17.31050198 -1.64708882 17.37254569 -5 17 C-3.18181818 3.18181818 -3.18181818 3.18181818 0 0 Z " fill="#6A6A6F" transform="translate(44,598)"/>
<path d="M0 0 C1.97265625 1.5 1.97265625 1.5 4 4 C4.37389945 6.82632655 4.51639727 9.19023928 4.4375 12 C4.44458984 12.7115625 4.45167969 13.423125 4.45898438 14.15625 C4.40787679 18.37066029 3.99359052 20.95082557 1 24 C1.01160156 22.77023437 1.02320313 21.54046875 1.03515625 20.2734375 C1.04454022 18.64062653 1.05363977 17.0078139 1.0625 15.375 C1.07087891 14.56675781 1.07925781 13.75851562 1.08789062 12.92578125 C1.1058955 8.49658082 0.89622662 4.36116576 0 0 Z " fill="#6D6D6F" transform="translate(883,499)"/>
<path d="M0 0 C0.66 0 1.32 0 2 0 C2.02688151 1.64574566 2.04634123 3.29161413 2.0625 4.9375 C2.07410156 5.85402344 2.08570313 6.77054688 2.09765625 7.71484375 C2 10 2 10 1 11 C0.76807135 12.51469448 0.58784762 14.03754562 0.4375 15.5625 C0.31181641 16.80193359 0.31181641 16.80193359 0.18359375 18.06640625 C0.12300781 18.70449219 0.06242188 19.34257813 0 20 C-0.66 20 -1.32 20 -2 20 C-2.66 22.31 -3.32 24.62 -4 27 C-4.99 27 -5.98 27 -7 27 C-5.80100302 23.9168649 -4.52299523 20.93720508 -3 18 C-2.34 18 -1.68 18 -1 18 C-0.505 9.09 -0.505 9.09 0 0 Z " fill="#38393E" transform="translate(784,507)"/>
<path d="M0 0 C1.33332095 2.6666419 0.67102033 4.16680303 0 7 C-0.66 7 -1.32 7 -2 7 C-2.33 15.58 -2.66 24.16 -3 33 C-3.33 33 -3.66 33 -4 33 C-4.02948491 29.85418698 -4.04695916 26.70841037 -4.0625 23.5625 C-4.07506836 22.24475586 -4.07506836 22.24475586 -4.08789062 20.90039062 C-4.14333462 5.87506877 -4.14333462 5.87506877 -1.4375 1.4375 C-0.7259375 0.7259375 -0.7259375 0.7259375 0 0 Z " fill="#A8A8AC" transform="translate(811,490)"/>
<path d="M0 0 C0.4375 2.125 0.4375 2.125 0 5 C-2.02800091 7.4358358 -4.2055956 9.48920412 -7 11 C-9.234375 10.6640625 -9.234375 10.6640625 -11 10 C-9.35718838 8.33035479 -7.71067239 6.6643536 -6.0625 5 C-5.14597656 4.071875 -4.22945313 3.14375 -3.28515625 2.1875 C-1 0 -1 0 0 0 Z " fill="#414346" transform="translate(72,583)"/>
<path d="M0 0 C0.66 0 1.32 0 2 0 C1.67 7.92 1.34 15.84 1 24 C1.66 24 2.32 24 3 24 C3 25.32 3 26.64 3 28 C2.34 28 1.68 28 1 28 C-0.35700647 25.28598706 -0.1123861 23.15153684 -0.09765625 20.1171875 C-0.09443359 18.95058594 -0.09121094 17.78398438 -0.08789062 16.58203125 C-0.07951172 15.35871094 -0.07113281 14.13539063 -0.0625 12.875 C-0.05798828 11.64394531 -0.05347656 10.41289062 -0.04882812 9.14453125 C-0.0370133 6.09630608 -0.02054028 3.04817686 0 0 Z " fill="#525256" transform="translate(806,499)"/>
<path d="M0 0 C-2.95664519 1.4783226 -5.74229737 1.06032783 -9 1 C-9 1.66 -9 2.32 -9 3 C-12 5 -12 5 -15 5 C-15.66 6.98 -16.32 8.96 -17 11 C-17.66 11 -18.32 11 -19 11 C-17.23179061 5.69537183 -14.60495255 3.06996837 -10 0 C-6.33469563 -0.85783719 -3.58826313 -1.24209108 0 0 Z " fill="#5C5C5F" transform="translate(847,490)"/>
<path d="M0 0 C9.24 0 18.48 0 28 0 C28 0.99 28 1.98 28 3 C26.68 3.33 25.36 3.66 24 4 C24.33 3.01 24.66 2.02 25 1 C16.75 1 8.5 1 0 1 C0 0.67 0 0.34 0 0 Z " fill="#7E7F83" transform="translate(292,432)"/>
<path d="M0 0 C0.88945313 0.00966797 1.77890625 0.01933594 2.6953125 0.02929688 C3.61570312 0.05443359 4.53609375 0.07957031 5.484375 0.10546875 C6.42023438 0.11900391 7.35609375 0.13253906 8.3203125 0.14648438 C10.62558827 0.18176921 12.9296856 0.23106594 15.234375 0.29296875 C15.234375 0.62296875 15.234375 0.95296875 15.234375 1.29296875 C12.35980708 1.63044423 9.48481441 1.96307338 6.609375 2.29296875 C5.80113281 2.38835937 4.99289063 2.48375 4.16015625 2.58203125 C-0.17536239 3.07550492 -4.39299811 3.40617592 -8.765625 3.29296875 C-5.76395699 0.68007099 -3.96935189 -0.07633369 0 0 Z " fill="#6C6D71" transform="translate(121.765625,498.70703125)"/>
<path d="M0 0 C1.3805087 3.76668598 0.59568159 6.44789173 -0.4375 10.25 C-0.72496094 11.32765625 -1.01242188 12.4053125 -1.30859375 13.515625 C-1.53675781 14.33546875 -1.76492187 15.1553125 -2 16 C-2.66 16 -3.32 16 -4 16 C-4.33 17.32 -4.66 18.64 -5 20 C-5.39145699 15.82445877 -4.3236315 12.86661218 -2.80078125 9.0703125 C-1.65094198 6.09755732 -0.83283738 3.07509185 0 0 Z " fill="#6C6D71" transform="translate(57,549)"/>
<path d="M0 0 C0 3 0 3 -1.3203125 4.5703125 C-5.13740322 7.85862875 -7.76919965 9.74483901 -13 10 C-13 9.34 -13 8.68 -13 8 C-11.39125 7.38125 -11.39125 7.38125 -9.75 6.75 C-6.45958492 5.35406633 -4.40786235 3.67540262 -2 1 C-1.34 0.67 -0.68 0.34 0 0 Z " fill="#55565A" transform="translate(220,506)"/>
<path d="M0 0 C0.33 0 0.66 0 1 0 C1 5.94 1 11.88 1 18 C0.34 18 -0.32 18 -1 18 C-1.33 18.99 -1.66 19.98 -2 21 C-2.04241723 18.66705225 -2.04092937 16.33297433 -2 14 C-1.67 13.67 -1.34 13.34 -1 13 C-0.76518307 10.81707226 -0.58636677 8.62796826 -0.4375 6.4375 C-0.35371094 5.23996094 -0.26992188 4.04242188 -0.18359375 2.80859375 C-0.12300781 1.88175781 -0.06242188 0.95492188 0 0 Z " fill="#C0C1C5" transform="translate(782,507)"/>
<path d="M0 0 C0 0.99 0 1.98 0 3 C-2.64 3 -5.28 3 -8 3 C-8 3.66 -8 4.32 -8 5 C-10.64 4.67 -13.28 4.34 -16 4 C-12.99173442 2.33495998 -10.24829788 1.50938139 -6.875 0.875 C-6.00617187 0.70742188 -5.13734375 0.53984375 -4.2421875 0.3671875 C-2 0 -2 0 0 0 Z " fill="#3D3F43" transform="translate(763,544)"/>
<path d="M0 0 C0.33 0 0.66 0 1 0 C1.02690104 2.79173055 1.04679053 5.58320348 1.0625 8.375 C1.07087891 9.1690625 1.07925781 9.963125 1.08789062 10.78125 C1.11328125 16.7734375 1.11328125 16.7734375 0 19 C-0.66 19 -1.32 19 -2 19 C-2.33 19.99 -2.66 20.98 -3 22 C-2.67 19.69 -2.34 17.38 -2 15 C-1.34 15 -0.68 15 0 15 C0 10.05 0 5.1 0 0 Z " fill="#5F6063" transform="translate(905,508)"/>
<path d="M0 0 C2.31 0.33 4.62 0.66 7 1 C7 1.66 7 2.32 7 3 C9.97 3.495 9.97 3.495 13 4 C13 4.66 13 5.32 13 6 C8.21193122 6.74813575 5.43289751 4.69491132 1.57421875 2.19140625 C1.05472656 1.79824219 0.53523437 1.40507813 0 1 C0 0.67 0 0.34 0 0 Z " fill="#88898D" transform="translate(581,542)"/>
<path d="M0 0 C0.66 0 1.32 0 2 0 C1.91291962 2.10494301 1.80474307 4.20902142 1.6875 6.3125 C1.62949219 7.48425781 1.57148437 8.65601563 1.51171875 9.86328125 C1 13 1 13 -2 16 C-1.34 10.72 -0.68 5.44 0 0 Z " fill="#A2A3A6" transform="translate(662,516)"/>
<path d="M0 0 C0 0.99 0 1.98 0 3 C-0.66 3.66 -1.32 4.32 -2 5 C-2.144375 6.134375 -2.28875 7.26875 -2.4375 8.4375 C-2.99181222 11.94814405 -3.23313124 12.95492309 -6 15 C-4.36764706 3.57352941 -4.36764706 3.57352941 0 0 Z " fill="#959699" transform="translate(86,453)"/>
<path d="M0 0 C2.64 0 5.28 0 8 0 C7.360625 0.309375 6.72125 0.61875 6.0625 0.9375 C4.06389179 1.8345163 4.06389179 1.8345163 3 3 C1.48530552 3.23192865 -0.03754562 3.41215238 -1.5625 3.5625 C-2.80193359 3.68818359 -2.80193359 3.68818359 -4.06640625 3.81640625 C-5.02353516 3.90728516 -5.02353516 3.90728516 -6 4 C-5.67 3.34 -5.34 2.68 -5 2 C-3.35 2 -1.7 2 0 2 C0 1.34 0 0.68 0 0 Z " fill="#747477" transform="translate(591,475)"/>
<path d="M0 0 C0 0.99 0 1.98 0 3 C-1.75 4.75 -1.75 4.75 -4 6 C-6.25 5.6875 -6.25 5.6875 -8 5 C-5.31158141 2.74754119 -3.35358125 1.11786042 0 0 Z " fill="#45474B" transform="translate(86,500)"/>
<path d="M0 0 C2.64 0 5.28 0 8 0 C7 2 7 2 4.1875 3.1875 C1.14038924 3.96421451 -0.13749363 4.10096399 -3 3 C-2.01 3 -1.02 3 0 3 C0 2.01 0 1.02 0 0 Z " fill="#646568" transform="translate(105,502)"/>
<path d="M0 0 C0.66 0 1.32 0 2 0 C2 0.99 2 1.98 2 3 C2.66 3 3.32 3 4 3 C4 6.63 4 10.26 4 14 C3.67 14 3.34 14 3 14 C0.88838269 4.58997722 0.88838269 4.58997722 0 0 Z " fill="#2B2C30" transform="translate(902,494)"/>
<path d="M0 0 C-1.29299694 2.88437779 -2.65941363 4.87219421 -5 7 C-5.99 6.67 -6.98 6.34 -8 6 C-3.38461538 0 -3.38461538 0 0 0 Z " fill="#B6B7BA" transform="translate(581,481)"/>
<path d="M0 0 C0.66 0.33 1.32 0.66 2 1 C-0.25 3.5625 -0.25 3.5625 -3 6 C-4.32 5.67 -5.64 5.34 -7 5 C-4.69 3.35 -2.38 1.7 0 0 Z " fill="#5C5D60" transform="translate(197,521)"/>
<path d="M0 0 C2.97 0.495 2.97 0.495 6 1 C1.25 5 1.25 5 -1 5 C-0.67 3.35 -0.34 1.7 0 0 Z " fill="#393A3D" transform="translate(96,505)"/>
<path d="M0 0 C-0.33 0.99 -0.66 1.98 -1 3 C-3.3125 4.0625 -3.3125 4.0625 -6 5 C-7.34050052 5.65213539 -8.67661368 6.31379969 -10 7 C-4.84210526 0 -4.84210526 0 0 0 Z " fill="#606165" transform="translate(283,459)"/>
<path d="M0 0 C1.98 1.65 3.96 3.3 6 5 C2.25 6.125 2.25 6.125 0 5 C0 3.35 0 1.7 0 0 Z " fill="#353639" transform="translate(572,535)"/>
<path d="M0 0 C0.8125 1.6875 0.8125 1.6875 1 4 C-1.4375 6.75 -1.4375 6.75 -4 9 C-4.66 8.67 -5.32 8.34 -6 8 C-5.525625 7.566875 -5.05125 7.13375 -4.5625 6.6875 C-2.76313043 4.97690387 -2.76313043 4.97690387 -2 2 C-1.34 2 -0.68 2 0 2 C0 1.34 0 0.68 0 0 Z " fill="#8F9092" transform="translate(762,521)"/>
<path d="M0 0 C0.99 0.33 1.98 0.66 3 1 C3 1.66 3 2.32 3 3 C3.804375 3.12375 4.60875 3.2475 5.4375 3.375 C6.7059375 3.684375 6.7059375 3.684375 8 4 C8.33 4.66 8.66 5.32 9 6 C7.68 6 6.36 6 5 6 C5 5.34 5 4.68 5 4 C4.01 4 3.02 4 2 4 C1.34 2.68 0.68 1.36 0 0 Z " fill="#6D6E70" transform="translate(817,539)"/>
<path d="M0 0 C0.99 0 1.98 0 3 0 C3 0.66 3 1.32 3 2 C4.32 2.66 5.64 3.32 7 4 C6.01 4.495 6.01 4.495 5 5 C2.375 4.0625 2.375 4.0625 0 3 C0 2.01 0 1.02 0 0 Z " fill="#343539" transform="translate(810,534)"/>
<path d="M0 0 C0.99 0 1.98 0 3 0 C3.66 1.65 4.32 3.3 5 5 C3.35 4.67 1.7 4.34 0 4 C0 2.66666667 0 1.33333333 0 0 Z " fill="#3E3F43" transform="translate(592,527)"/>
<path d="M0 0 C0.66 0.33 1.32 0.66 2 1 C0.25 3.0625 0.25 3.0625 -2 5 C-4.25 4.75 -4.25 4.75 -6 4 C-4.02 2.68 -2.04 1.36 0 0 Z " fill="#68696D" transform="translate(205,516)"/>
</svg>
